<svg width="1029" height="1083" viewBox="0 0 1029 1083" fill="none" xmlns="http://www.w3.org/2000/svg">
<rect width="1029" height="1083" fill="#E5E5E5"/>
<rect width="1029" height="1083" fill="white"/>
<g filter="url(#filter0_d_0_1)">
<g filter="url(#filter1_d_0_1)">
<rect x="48" y="177" width="900" height="70" rx="4" fill="white"/>
<rect x="48.5" y="177.5" width="899" height="69" rx="3.5" stroke="#E1E7ED"/>
</g>
<path d="M115.168 218H114.016V207.728H110.224V206.672H118.96V207.728H115.168V218ZM118.983 212.848C118.983 212.517 118.972 212.181 118.951 211.84C118.94 211.499 118.929 211.056 118.919 210.512H119.959V211.904H119.991C120.065 211.701 120.172 211.509 120.311 211.328C120.449 211.136 120.615 210.965 120.807 210.816C121.009 210.667 121.239 210.549 121.495 210.464C121.761 210.368 122.06 210.32 122.391 210.32C122.689 210.32 122.951 210.352 123.175 210.416L122.967 211.456C122.828 211.403 122.625 211.376 122.359 211.376C121.953 211.376 121.607 211.456 121.319 211.616C121.031 211.765 120.791 211.963 120.599 212.208C120.407 212.443 120.263 212.699 120.167 212.976C120.081 213.253 120.039 213.52 120.039 213.776V218H118.983V212.848ZM126.967 216.704L129.255 210.512H130.535L126.791 219.952C126.567 220.528 126.279 220.987 125.927 221.328C125.586 221.669 125.09 221.84 124.439 221.84C124.279 221.84 124.114 221.835 123.943 221.824C123.783 221.813 123.623 221.781 123.463 221.728L123.575 220.704C123.799 220.821 124.066 220.88 124.375 220.88C124.749 220.88 125.042 220.763 125.255 220.528C125.469 220.293 125.655 219.963 125.815 219.536L126.359 218.096L123.287 210.512H124.615L126.967 216.704ZM140.915 206.672H141.987L140.915 210.432H139.619L140.915 206.672ZM138.019 206.672H139.091L138.019 210.432H136.723L138.019 206.672ZM146.188 216.944H151.468V218H145.036V206.672H146.188V216.944ZM159.068 214.256C159.068 213.84 158.999 213.451 158.86 213.088C158.732 212.725 158.545 212.411 158.3 212.144C158.055 211.877 157.756 211.669 157.404 211.52C157.063 211.36 156.673 211.28 156.236 211.28C155.799 211.28 155.404 211.36 155.052 211.52C154.711 211.669 154.417 211.877 154.172 212.144C153.937 212.411 153.751 212.725 153.612 213.088C153.484 213.451 153.42 213.84 153.42 214.256C153.42 214.672 153.484 215.061 153.612 215.424C153.751 215.787 153.937 216.101 154.172 216.368C154.417 216.635 154.711 216.848 155.052 217.008C155.404 217.157 155.799 217.232 156.236 217.232C156.673 217.232 157.063 217.157 157.404 217.008C157.756 216.848 158.055 216.635 158.3 216.368C158.545 216.101 158.732 215.787 158.86 215.424C158.999 215.061 159.068 214.672 159.068 214.256ZM160.22 214.256C160.22 214.821 160.119 215.344 159.916 215.824C159.724 216.304 159.452 216.72 159.1 217.072C158.748 217.424 158.327 217.701 157.836 217.904C157.356 218.096 156.823 218.192 156.236 218.192C155.66 218.192 155.127 218.096 154.636 217.904C154.156 217.701 153.74 217.424 153.388 217.072C153.036 216.72 152.759 216.304 152.556 215.824C152.364 215.344 152.268 214.821 152.268 214.256C152.268 213.691 152.364 213.168 152.556 212.688C152.759 212.208 153.036 211.792 153.388 211.44C153.74 211.088 154.156 210.816 154.636 210.624C155.127 210.421 155.66 210.32 156.236 210.32C156.823 210.32 157.356 210.421 157.836 210.624C158.327 210.816 158.748 211.088 159.1 211.44C159.452 211.792 159.724 212.208 159.916 212.688C160.119 213.168 160.22 213.691 160.22 214.256ZM166.104 212.288C165.944 211.979 165.731 211.733 165.464 211.552C165.198 211.371 164.872 211.28 164.488 211.28C164.307 211.28 164.12 211.301 163.928 211.344C163.747 211.387 163.582 211.456 163.432 211.552C163.283 211.637 163.16 211.749 163.064 211.888C162.979 212.027 162.936 212.197 162.936 212.4C162.936 212.752 163.059 213.008 163.304 213.168C163.55 213.328 163.918 213.467 164.408 213.584L165.48 213.84C166.003 213.957 166.435 214.197 166.776 214.56C167.128 214.912 167.304 215.355 167.304 215.888C167.304 216.293 167.219 216.645 167.048 216.944C166.888 217.232 166.67 217.472 166.392 217.664C166.126 217.845 165.816 217.979 165.464 218.064C165.112 218.149 164.755 218.192 164.392 218.192C163.816 218.192 163.278 218.085 162.776 217.872C162.286 217.648 161.864 217.269 161.512 216.736L162.424 216.112C162.638 216.453 162.904 216.725 163.224 216.928C163.555 217.131 163.944 217.232 164.392 217.232C164.606 217.232 164.819 217.211 165.032 217.168C165.246 217.115 165.432 217.04 165.592 216.944C165.763 216.837 165.896 216.704 165.992 216.544C166.099 216.384 166.152 216.197 166.152 215.984C166.152 215.611 166.014 215.344 165.736 215.184C165.459 215.013 165.123 214.88 164.728 214.784L163.704 214.544C163.576 214.512 163.4 214.459 163.176 214.384C162.963 214.309 162.75 214.197 162.536 214.048C162.334 213.899 162.158 213.707 162.008 213.472C161.859 213.227 161.784 212.928 161.784 212.576C161.784 212.192 161.859 211.856 162.008 211.568C162.168 211.28 162.376 211.045 162.632 210.864C162.899 210.683 163.198 210.549 163.528 210.464C163.859 210.368 164.2 210.32 164.552 210.32C165.075 210.32 165.56 210.421 166.008 210.624C166.456 210.827 166.803 211.173 167.048 211.664L166.104 212.288ZM175.274 213.968H180.186L177.738 208.016L175.274 213.968ZM173.594 218H172.25L177.178 206.672H178.298L183.226 218H181.882L180.634 215.024H174.842L173.594 218ZM185.379 210.512C185.4 210.715 185.411 210.917 185.411 211.12C185.421 211.312 185.427 211.509 185.427 211.712H185.459C185.576 211.509 185.725 211.323 185.907 211.152C186.088 210.981 186.291 210.837 186.515 210.72C186.739 210.592 186.973 210.496 187.219 210.432C187.475 210.357 187.725 210.32 187.971 210.32C188.931 210.32 189.64 210.576 190.099 211.088C190.557 211.589 190.787 212.309 190.787 213.248V218H189.731V213.856C189.731 213.024 189.587 212.389 189.299 211.952C189.011 211.504 188.477 211.28 187.699 211.28C187.645 211.28 187.496 211.301 187.251 211.344C187.005 211.387 186.744 211.504 186.467 211.696C186.2 211.888 185.96 212.176 185.747 212.56C185.533 212.944 185.427 213.477 185.427 214.16V218H184.371V212.16C184.371 211.957 184.36 211.701 184.339 211.392C184.328 211.083 184.312 210.789 184.291 210.512H185.379ZM194.029 214.16C194.029 214.555 194.099 214.928 194.237 215.28C194.387 215.621 194.584 215.925 194.829 216.192C195.085 216.448 195.379 216.656 195.709 216.816C196.051 216.965 196.419 217.04 196.813 217.04C197.197 217.04 197.56 216.971 197.901 216.832C198.253 216.693 198.563 216.501 198.829 216.256C199.096 216 199.299 215.696 199.437 215.344C199.587 214.992 199.656 214.597 199.645 214.16C199.645 213.765 199.581 213.397 199.453 213.056C199.325 212.704 199.139 212.4 198.893 212.144C198.648 211.877 198.349 211.669 197.997 211.52C197.645 211.36 197.251 211.28 196.813 211.28C196.419 211.28 196.051 211.36 195.709 211.52C195.379 211.669 195.085 211.877 194.829 212.144C194.584 212.4 194.387 212.704 194.237 213.056C194.099 213.397 194.029 213.765 194.029 214.16ZM193.837 219.504C194.147 219.92 194.547 220.251 195.037 220.496C195.539 220.752 196.093 220.88 196.701 220.88C197.235 220.88 197.688 220.8 198.061 220.64C198.435 220.491 198.733 220.283 198.957 220.016C199.192 219.749 199.357 219.435 199.453 219.072C199.56 218.72 199.613 218.341 199.613 217.936V216.592H199.581C199.24 217.104 198.824 217.467 198.333 217.68C197.843 217.893 197.325 218 196.781 218C196.237 218 195.725 217.904 195.245 217.712C194.776 217.52 194.365 217.259 194.013 216.928C193.661 216.587 193.384 216.181 193.181 215.712C192.979 215.243 192.877 214.736 192.877 214.192C192.877 213.648 192.973 213.141 193.165 212.672C193.357 212.203 193.619 211.792 193.949 211.44C194.291 211.088 194.691 210.816 195.149 210.624C195.619 210.421 196.131 210.32 196.685 210.32C196.909 210.32 197.144 210.341 197.389 210.384C197.645 210.427 197.896 210.501 198.141 210.608C198.397 210.715 198.648 210.864 198.893 211.056C199.139 211.237 199.368 211.472 199.581 211.76H199.613V210.512H200.669V217.936C200.669 218.341 200.616 218.773 200.509 219.232C200.413 219.691 200.216 220.112 199.917 220.496C199.629 220.88 199.224 221.2 198.701 221.456C198.179 221.712 197.496 221.84 196.653 221.84C195.907 221.84 195.24 221.717 194.653 221.472C194.067 221.227 193.533 220.848 193.053 220.336L193.837 219.504ZM208.867 213.68C208.867 212.965 208.653 212.389 208.227 211.952C207.8 211.504 207.203 211.28 206.435 211.28C206.093 211.28 205.763 211.349 205.443 211.488C205.123 211.616 204.84 211.792 204.595 212.016C204.36 212.24 204.168 212.496 204.019 212.784C203.88 213.072 203.811 213.371 203.811 213.68H208.867ZM203.779 214.544C203.811 214.917 203.901 215.269 204.051 215.6C204.2 215.931 204.397 216.219 204.643 216.464C204.888 216.699 205.171 216.885 205.491 217.024C205.811 217.163 206.157 217.232 206.531 217.232C207.096 217.232 207.581 217.104 207.987 216.848C208.403 216.581 208.717 216.277 208.931 215.936L209.747 216.608C209.299 217.173 208.803 217.579 208.259 217.824C207.725 218.069 207.149 218.192 206.531 218.192C205.976 218.192 205.459 218.096 204.979 217.904C204.509 217.701 204.104 217.424 203.763 217.072C203.421 216.72 203.149 216.304 202.947 215.824C202.755 215.344 202.659 214.821 202.659 214.256C202.659 213.691 202.755 213.168 202.947 212.688C203.139 212.208 203.405 211.792 203.747 211.44C204.088 211.088 204.488 210.816 204.947 210.624C205.405 210.421 205.901 210.32 206.435 210.32C207 210.32 207.507 210.421 207.955 210.624C208.403 210.827 208.776 211.099 209.075 211.44C209.384 211.771 209.619 212.165 209.779 212.624C209.939 213.072 210.019 213.552 210.019 214.064V214.544H203.779ZM213.229 218H212.173V205.904H213.229V218ZM221.601 213.68C221.601 212.965 221.388 212.389 220.961 211.952C220.534 211.504 219.937 211.28 219.169 211.28C218.828 211.28 218.497 211.349 218.177 211.488C217.857 211.616 217.574 211.792 217.329 212.016C217.094 212.24 216.902 212.496 216.753 212.784C216.614 213.072 216.545 213.371 216.545 213.68H221.601ZM216.513 214.544C216.545 214.917 216.636 215.269 216.785 215.6C216.934 215.931 217.132 216.219 217.377 216.464C217.622 216.699 217.905 216.885 218.225 217.024C218.545 217.163 218.892 217.232 219.265 217.232C219.83 217.232 220.316 217.104 220.721 216.848C221.137 216.581 221.452 216.277 221.665 215.936L222.481 216.608C222.033 217.173 221.537 217.579 220.993 217.824C220.46 218.069 219.884 218.192 219.265 218.192C218.71 218.192 218.193 218.096 217.713 217.904C217.244 217.701 216.838 217.424 216.497 217.072C216.156 216.72 215.884 216.304 215.681 215.824C215.489 215.344 215.393 214.821 215.393 214.256C215.393 213.691 215.489 213.168 215.681 212.688C215.873 212.208 216.14 211.792 216.481 211.44C216.822 211.088 217.222 210.816 217.681 210.624C218.14 210.421 218.636 210.32 219.169 210.32C219.734 210.32 220.241 210.421 220.689 210.624C221.137 210.827 221.51 211.099 221.809 211.44C222.118 211.771 222.353 212.165 222.513 212.624C222.673 213.072 222.753 213.552 222.753 214.064V214.544H216.513ZM228.636 212.288C228.476 211.979 228.262 211.733 227.996 211.552C227.729 211.371 227.404 211.28 227.02 211.28C226.838 211.28 226.652 211.301 226.46 211.344C226.278 211.387 226.113 211.456 225.964 211.552C225.814 211.637 225.692 211.749 225.596 211.888C225.51 212.027 225.468 212.197 225.468 212.4C225.468 212.752 225.59 213.008 225.836 213.168C226.081 213.328 226.449 213.467 226.94 213.584L228.012 213.84C228.534 213.957 228.966 214.197 229.308 214.56C229.66 214.912 229.836 215.355 229.836 215.888C229.836 216.293 229.75 216.645 229.58 216.944C229.42 217.232 229.201 217.472 228.924 217.664C228.657 217.845 228.348 217.979 227.996 218.064C227.644 218.149 227.286 218.192 226.924 218.192C226.348 218.192 225.809 218.085 225.308 217.872C224.817 217.648 224.396 217.269 224.044 216.736L224.956 216.112C225.169 216.453 225.436 216.725 225.756 216.928C226.086 217.131 226.476 217.232 226.924 217.232C227.137 217.232 227.35 217.211 227.564 217.168C227.777 217.115 227.964 217.04 228.124 216.944C228.294 216.837 228.428 216.704 228.524 216.544C228.63 216.384 228.684 216.197 228.684 215.984C228.684 215.611 228.545 215.344 228.268 215.184C227.99 215.013 227.654 214.88 227.26 214.784L226.236 214.544C226.108 214.512 225.932 214.459 225.708 214.384C225.494 214.309 225.281 214.197 225.068 214.048C224.865 213.899 224.689 213.707 224.54 213.472C224.39 213.227 224.316 212.928 224.316 212.576C224.316 212.192 224.39 211.856 224.54 211.568C224.7 211.28 224.908 211.045 225.164 210.864C225.43 210.683 225.729 210.549 226.06 210.464C226.39 210.368 226.732 210.32 227.084 210.32C227.606 210.32 228.092 210.421 228.54 210.624C228.988 210.827 229.334 211.173 229.58 211.664L228.636 212.288ZM232.92 210.432H231.848L232.92 206.672H234.216L232.92 210.432ZM235.816 210.432H234.744L235.816 206.672H237.112L235.816 210.432Z" fill="#3D4E61"/>
<path d="M87.8401 215.086L87.5339 215.438L87.8638 215.767L92.4821 220.385C92.4925 220.395 92.5 220.411 92.5 220.431C92.5 220.452 92.4925 220.468 92.4821 220.478L92.4821 220.478L92.4755 220.485C92.4677 220.493 92.4538 220.5 92.4354 220.5C92.4318 220.5 92.4242 220.499 92.4143 220.495C92.4047 220.491 92.3958 220.485 92.3886 220.478L87.7702 215.861L87.4405 215.531L87.0886 215.837C85.7516 217 84.0088 217.703 82.1031 217.703C77.9125 217.703 74.5 214.291 74.5 210.101C74.5 205.912 77.9085 202.5 82.1031 202.5C86.2939 202.5 89.7063 205.908 89.7063 210.101C89.7063 212.006 89.0031 213.749 87.8401 215.086ZM82.0989 202.637C77.9843 202.637 74.6335 205.983 74.6335 210.101C74.6335 214.22 77.9839 217.569 82.0989 217.569C86.2185 217.569 89.5643 214.215 89.5643 210.101C89.5643 205.987 86.2181 202.637 82.0989 202.637Z" fill="#687C94" stroke="#687C94"/>
</g>
<g filter="url(#filter2_d_0_1)">
<rect x="48" y="71" width="900" height="70" rx="4" fill="white"/>
<rect x="48.5" y="71.5" width="899" height="69" rx="3.5" stroke="#E1E7ED"/>
</g>
<path d="M115.168 112H114.016V101.728H110.224V100.672H118.96V101.728H115.168V112ZM118.983 106.848C118.983 106.517 118.972 106.181 118.951 105.84C118.94 105.499 118.929 105.056 118.919 104.512H119.959V105.904H119.991C120.065 105.701 120.172 105.509 120.311 105.328C120.449 105.136 120.615 104.965 120.807 104.816C121.009 104.667 121.239 104.549 121.495 104.464C121.761 104.368 122.06 104.32 122.391 104.32C122.689 104.32 122.951 104.352 123.175 104.416L122.967 105.456C122.828 105.403 122.625 105.376 122.359 105.376C121.953 105.376 121.607 105.456 121.319 105.616C121.031 105.765 120.791 105.963 120.599 106.208C120.407 106.443 120.263 106.699 120.167 106.976C120.081 107.253 120.039 107.52 120.039 107.776V112H118.983V106.848ZM126.967 110.704L129.255 104.512H130.535L126.791 113.952C126.567 114.528 126.279 114.987 125.927 115.328C125.586 115.669 125.09 115.84 124.439 115.84C124.279 115.84 124.114 115.835 123.943 115.824C123.783 115.813 123.623 115.781 123.463 115.728L123.575 114.704C123.799 114.821 124.066 114.88 124.375 114.88C124.749 114.88 125.042 114.763 125.255 114.528C125.469 114.293 125.655 113.963 125.815 113.536L126.359 112.096L123.287 104.512H124.615L126.967 110.704ZM140.915 100.672H141.987L140.915 104.432H139.619L140.915 100.672ZM138.019 100.672H139.091L138.019 104.432H136.723L138.019 100.672ZM146.188 110.944H151.468V112H145.036V100.672H146.188V110.944ZM159.068 108.256C159.068 107.84 158.999 107.451 158.86 107.088C158.732 106.725 158.545 106.411 158.3 106.144C158.055 105.877 157.756 105.669 157.404 105.52C157.063 105.36 156.673 105.28 156.236 105.28C155.799 105.28 155.404 105.36 155.052 105.52C154.711 105.669 154.417 105.877 154.172 106.144C153.937 106.411 153.751 106.725 153.612 107.088C153.484 107.451 153.42 107.84 153.42 108.256C153.42 108.672 153.484 109.061 153.612 109.424C153.751 109.787 153.937 110.101 154.172 110.368C154.417 110.635 154.711 110.848 155.052 111.008C155.404 111.157 155.799 111.232 156.236 111.232C156.673 111.232 157.063 111.157 157.404 111.008C157.756 110.848 158.055 110.635 158.3 110.368C158.545 110.101 158.732 109.787 158.86 109.424C158.999 109.061 159.068 108.672 159.068 108.256ZM160.22 108.256C160.22 108.821 160.119 109.344 159.916 109.824C159.724 110.304 159.452 110.72 159.1 111.072C158.748 111.424 158.327 111.701 157.836 111.904C157.356 112.096 156.823 112.192 156.236 112.192C155.66 112.192 155.127 112.096 154.636 111.904C154.156 111.701 153.74 111.424 153.388 111.072C153.036 110.72 152.759 110.304 152.556 109.824C152.364 109.344 152.268 108.821 152.268 108.256C152.268 107.691 152.364 107.168 152.556 106.688C152.759 106.208 153.036 105.792 153.388 105.44C153.74 105.088 154.156 104.816 154.636 104.624C155.127 104.421 155.66 104.32 156.236 104.32C156.823 104.32 157.356 104.421 157.836 104.624C158.327 104.816 158.748 105.088 159.1 105.44C159.452 105.792 159.724 106.208 159.916 106.688C160.119 107.168 160.22 107.691 160.22 108.256ZM166.104 106.288C165.944 105.979 165.731 105.733 165.464 105.552C165.198 105.371 164.872 105.28 164.488 105.28C164.307 105.28 164.12 105.301 163.928 105.344C163.747 105.387 163.582 105.456 163.432 105.552C163.283 105.637 163.16 105.749 163.064 105.888C162.979 106.027 162.936 106.197 162.936 106.4C162.936 106.752 163.059 107.008 163.304 107.168C163.55 107.328 163.918 107.467 164.408 107.584L165.48 107.84C166.003 107.957 166.435 108.197 166.776 108.56C167.128 108.912 167.304 109.355 167.304 109.888C167.304 110.293 167.219 110.645 167.048 110.944C166.888 111.232 166.67 111.472 166.392 111.664C166.126 111.845 165.816 111.979 165.464 112.064C165.112 112.149 164.755 112.192 164.392 112.192C163.816 112.192 163.278 112.085 162.776 111.872C162.286 111.648 161.864 111.269 161.512 110.736L162.424 110.112C162.638 110.453 162.904 110.725 163.224 110.928C163.555 111.131 163.944 111.232 164.392 111.232C164.606 111.232 164.819 111.211 165.032 111.168C165.246 111.115 165.432 111.04 165.592 110.944C165.763 110.837 165.896 110.704 165.992 110.544C166.099 110.384 166.152 110.197 166.152 109.984C166.152 109.611 166.014 109.344 165.736 109.184C165.459 109.013 165.123 108.88 164.728 108.784L163.704 108.544C163.576 108.512 163.4 108.459 163.176 108.384C162.963 108.309 162.75 108.197 162.536 108.048C162.334 107.899 162.158 107.707 162.008 107.472C161.859 107.227 161.784 106.928 161.784 106.576C161.784 106.192 161.859 105.856 162.008 105.568C162.168 105.28 162.376 105.045 162.632 104.864C162.899 104.683 163.198 104.549 163.528 104.464C163.859 104.368 164.2 104.32 164.552 104.32C165.075 104.32 165.56 104.421 166.008 104.624C166.456 104.827 166.803 105.173 167.048 105.664L166.104 106.288ZM175.274 107.968H180.186L177.738 102.016L175.274 107.968ZM173.594 112H172.25L177.178 100.672H178.298L183.226 112H181.882L180.634 109.024H174.842L173.594 112ZM185.379 104.512C185.4 104.715 185.411 104.917 185.411 105.12C185.421 105.312 185.427 105.509 185.427 105.712H185.459C185.576 105.509 185.725 105.323 185.907 105.152C186.088 104.981 186.291 104.837 186.515 104.72C186.739 104.592 186.973 104.496 187.219 104.432C187.475 104.357 187.725 104.32 187.971 104.32C188.931 104.32 189.64 104.576 190.099 105.088C190.557 105.589 190.787 106.309 190.787 107.248V112H189.731V107.856C189.731 107.024 189.587 106.389 189.299 105.952C189.011 105.504 188.477 105.28 187.699 105.28C187.645 105.28 187.496 105.301 187.251 105.344C187.005 105.387 186.744 105.504 186.467 105.696C186.2 105.888 185.96 106.176 185.747 106.56C185.533 106.944 185.427 107.477 185.427 108.16V112H184.371V106.16C184.371 105.957 184.36 105.701 184.339 105.392C184.328 105.083 184.312 104.789 184.291 104.512H185.379ZM194.029 108.16C194.029 108.555 194.099 108.928 194.237 109.28C194.387 109.621 194.584 109.925 194.829 110.192C195.085 110.448 195.379 110.656 195.709 110.816C196.051 110.965 196.419 111.04 196.813 111.04C197.197 111.04 197.56 110.971 197.901 110.832C198.253 110.693 198.563 110.501 198.829 110.256C199.096 110 199.299 109.696 199.437 109.344C199.587 108.992 199.656 108.597 199.645 108.16C199.645 107.765 199.581 107.397 199.453 107.056C199.325 106.704 199.139 106.4 198.893 106.144C198.648 105.877 198.349 105.669 197.997 105.52C197.645 105.36 197.251 105.28 196.813 105.28C196.419 105.28 196.051 105.36 195.709 105.52C195.379 105.669 195.085 105.877 194.829 106.144C194.584 106.4 194.387 106.704 194.237 107.056C194.099 107.397 194.029 107.765 194.029 108.16ZM193.837 113.504C194.147 113.92 194.547 114.251 195.037 114.496C195.539 114.752 196.093 114.88 196.701 114.88C197.235 114.88 197.688 114.8 198.061 114.64C198.435 114.491 198.733 114.283 198.957 114.016C199.192 113.749 199.357 113.435 199.453 113.072C199.56 112.72 199.613 112.341 199.613 111.936V110.592H199.581C199.24 111.104 198.824 111.467 198.333 111.68C197.843 111.893 197.325 112 196.781 112C196.237 112 195.725 111.904 195.245 111.712C194.776 111.52 194.365 111.259 194.013 110.928C193.661 110.587 193.384 110.181 193.181 109.712C192.979 109.243 192.877 108.736 192.877 108.192C192.877 107.648 192.973 107.141 193.165 106.672C193.357 106.203 193.619 105.792 193.949 105.44C194.291 105.088 194.691 104.816 195.149 104.624C195.619 104.421 196.131 104.32 196.685 104.32C196.909 104.32 197.144 104.341 197.389 104.384C197.645 104.427 197.896 104.501 198.141 104.608C198.397 104.715 198.648 104.864 198.893 105.056C199.139 105.237 199.368 105.472 199.581 105.76H199.613V104.512H200.669V111.936C200.669 112.341 200.616 112.773 200.509 113.232C200.413 113.691 200.216 114.112 199.917 114.496C199.629 114.88 199.224 115.2 198.701 115.456C198.179 115.712 197.496 115.84 196.653 115.84C195.907 115.84 195.24 115.717 194.653 115.472C194.067 115.227 193.533 114.848 193.053 114.336L193.837 113.504ZM208.867 107.68C208.867 106.965 208.653 106.389 208.227 105.952C207.8 105.504 207.203 105.28 206.435 105.28C206.093 105.28 205.763 105.349 205.443 105.488C205.123 105.616 204.84 105.792 204.595 106.016C204.36 106.24 204.168 106.496 204.019 106.784C203.88 107.072 203.811 107.371 203.811 107.68H208.867ZM203.779 108.544C203.811 108.917 203.901 109.269 204.051 109.6C204.2 109.931 204.397 110.219 204.643 110.464C204.888 110.699 205.171 110.885 205.491 111.024C205.811 111.163 206.157 111.232 206.531 111.232C207.096 111.232 207.581 111.104 207.987 110.848C208.403 110.581 208.717 110.277 208.931 109.936L209.747 110.608C209.299 111.173 208.803 111.579 208.259 111.824C207.725 112.069 207.149 112.192 206.531 112.192C205.976 112.192 205.459 112.096 204.979 111.904C204.509 111.701 204.104 111.424 203.763 111.072C203.421 110.72 203.149 110.304 202.947 109.824C202.755 109.344 202.659 108.821 202.659 108.256C202.659 107.691 202.755 107.168 202.947 106.688C203.139 106.208 203.405 105.792 203.747 105.44C204.088 105.088 204.488 104.816 204.947 104.624C205.405 104.421 205.901 104.32 206.435 104.32C207 104.32 207.507 104.421 207.955 104.624C208.403 104.827 208.776 105.099 209.075 105.44C209.384 105.771 209.619 106.165 209.779 106.624C209.939 107.072 210.019 107.552 210.019 108.064V108.544H203.779ZM213.229 112H212.173V99.904H213.229V112ZM221.601 107.68C221.601 106.965 221.388 106.389 220.961 105.952C220.534 105.504 219.937 105.28 219.169 105.28C218.828 105.28 218.497 105.349 218.177 105.488C217.857 105.616 217.574 105.792 217.329 106.016C217.094 106.24 216.902 106.496 216.753 106.784C216.614 107.072 216.545 107.371 216.545 107.68H221.601ZM216.513 108.544C216.545 108.917 216.636 109.269 216.785 109.6C216.934 109.931 217.132 110.219 217.377 110.464C217.622 110.699 217.905 110.885 218.225 111.024C218.545 111.163 218.892 111.232 219.265 111.232C219.83 111.232 220.316 111.104 220.721 110.848C221.137 110.581 221.452 110.277 221.665 109.936L222.481 110.608C222.033 111.173 221.537 111.579 220.993 111.824C220.46 112.069 219.884 112.192 219.265 112.192C218.71 112.192 218.193 112.096 217.713 111.904C217.244 111.701 216.838 111.424 216.497 111.072C216.156 110.72 215.884 110.304 215.681 109.824C215.489 109.344 215.393 108.821 215.393 108.256C215.393 107.691 215.489 107.168 215.681 106.688C215.873 106.208 216.14 105.792 216.481 105.44C216.822 105.088 217.222 104.816 217.681 104.624C218.14 104.421 218.636 104.32 219.169 104.32C219.734 104.32 220.241 104.421 220.689 104.624C221.137 104.827 221.51 105.099 221.809 105.44C222.118 105.771 222.353 106.165 222.513 106.624C222.673 107.072 222.753 107.552 222.753 108.064V108.544H216.513ZM228.636 106.288C228.476 105.979 228.262 105.733 227.996 105.552C227.729 105.371 227.404 105.28 227.02 105.28C226.838 105.28 226.652 105.301 226.46 105.344C226.278 105.387 226.113 105.456 225.964 105.552C225.814 105.637 225.692 105.749 225.596 105.888C225.51 106.027 225.468 106.197 225.468 106.4C225.468 106.752 225.59 107.008 225.836 107.168C226.081 107.328 226.449 107.467 226.94 107.584L228.012 107.84C228.534 107.957 228.966 108.197 229.308 108.56C229.66 108.912 229.836 109.355 229.836 109.888C229.836 110.293 229.75 110.645 229.58 110.944C229.42 111.232 229.201 111.472 228.924 111.664C228.657 111.845 228.348 111.979 227.996 112.064C227.644 112.149 227.286 112.192 226.924 112.192C226.348 112.192 225.809 112.085 225.308 111.872C224.817 111.648 224.396 111.269 224.044 110.736L224.956 110.112C225.169 110.453 225.436 110.725 225.756 110.928C226.086 111.131 226.476 111.232 226.924 111.232C227.137 111.232 227.35 111.211 227.564 111.168C227.777 111.115 227.964 111.04 228.124 110.944C228.294 110.837 228.428 110.704 228.524 110.544C228.63 110.384 228.684 110.197 228.684 109.984C228.684 109.611 228.545 109.344 228.268 109.184C227.99 109.013 227.654 108.88 227.26 108.784L226.236 108.544C226.108 108.512 225.932 108.459 225.708 108.384C225.494 108.309 225.281 108.197 225.068 108.048C224.865 107.899 224.689 107.707 224.54 107.472C224.39 107.227 224.316 106.928 224.316 106.576C224.316 106.192 224.39 105.856 224.54 105.568C224.7 105.28 224.908 105.045 225.164 104.864C225.43 104.683 225.729 104.549 226.06 104.464C226.39 104.368 226.732 104.32 227.084 104.32C227.606 104.32 228.092 104.421 228.54 104.624C228.988 104.827 229.334 105.173 229.58 105.664L228.636 106.288ZM232.92 104.432H231.848L232.92 100.672H234.216L232.92 104.432ZM235.816 104.432H234.744L235.816 100.672H237.112L235.816 104.432Z" fill="#3D4E61"/>
<path d="M87.8401 109.086L87.5339 109.438L87.8638 109.767L92.4821 114.385C92.4925 114.395 92.5 114.411 92.5 114.431C92.5 114.452 92.4925 114.468 92.4821 114.478L92.4821 114.478L92.4755 114.485C92.4677 114.493 92.4538 114.5 92.4354 114.5C92.4318 114.5 92.4242 114.499 92.4143 114.495C92.4047 114.491 92.3958 114.485 92.3886 114.478L87.7702 109.861L87.4405 109.531L87.0886 109.837C85.7516 111 84.0088 111.703 82.1031 111.703C77.9125 111.703 74.5 108.291 74.5 104.101C74.5 99.9118 77.9085 96.5 82.1031 96.5C86.2939 96.5 89.7063 99.9079 89.7063 104.101C89.7063 106.006 89.0031 107.749 87.8401 109.086ZM82.0989 96.6375C77.9843 96.6375 74.6335 99.9828 74.6335 104.101C74.6335 108.22 77.9839 111.569 82.0989 111.569C86.2185 111.569 89.5643 108.215 89.5643 104.101C89.5643 99.9874 86.2181 96.6375 82.0989 96.6375Z" fill="#687C94" stroke="#687C94"/>
<g filter="url(#filter3_d_0_1)">
<rect x="48.5" y="283.5" width="899" height="69" rx="2.5" fill="url(#paint0_linear_0_1)" stroke="#E1E7ED"/>
<g filter="url(#filter4_d_0_1)">
<path d="M111.264 312.672H113.28V322.176H118.096V324H111.264V312.672ZM119.001 320.16C119.001 319.552 119.108 319.003 119.321 318.512C119.545 318.011 119.844 317.584 120.217 317.232C120.59 316.88 121.033 316.608 121.545 316.416C122.057 316.224 122.601 316.128 123.177 316.128C123.753 316.128 124.297 316.224 124.809 316.416C125.321 316.608 125.764 316.88 126.137 317.232C126.51 317.584 126.804 318.011 127.017 318.512C127.241 319.003 127.353 319.552 127.353 320.16C127.353 320.768 127.241 321.323 127.017 321.824C126.804 322.315 126.51 322.736 126.137 323.088C125.764 323.44 125.321 323.712 124.809 323.904C124.297 324.096 123.753 324.192 123.177 324.192C122.601 324.192 122.057 324.096 121.545 323.904C121.033 323.712 120.59 323.44 120.217 323.088C119.844 322.736 119.545 322.315 119.321 321.824C119.108 321.323 119.001 320.768 119.001 320.16ZM120.921 320.16C120.921 320.459 120.969 320.747 121.065 321.024C121.172 321.301 121.321 321.547 121.513 321.76C121.716 321.973 121.956 322.144 122.233 322.272C122.51 322.4 122.825 322.464 123.177 322.464C123.529 322.464 123.844 322.4 124.121 322.272C124.398 322.144 124.633 321.973 124.825 321.76C125.028 321.547 125.177 321.301 125.273 321.024C125.38 320.747 125.433 320.459 125.433 320.16C125.433 319.861 125.38 319.573 125.273 319.296C125.177 319.019 125.028 318.773 124.825 318.56C124.633 318.347 124.398 318.176 124.121 318.048C123.844 317.92 123.529 317.856 123.177 317.856C122.825 317.856 122.51 317.92 122.233 318.048C121.956 318.176 121.716 318.347 121.513 318.56C121.321 318.773 121.172 319.019 121.065 319.296C120.969 319.573 120.921 319.861 120.921 320.16ZM133.247 318.448C132.873 317.925 132.372 317.664 131.743 317.664C131.487 317.664 131.236 317.728 130.991 317.856C130.745 317.984 130.623 318.192 130.623 318.48C130.623 318.715 130.724 318.885 130.927 318.992C131.129 319.099 131.385 319.189 131.695 319.264C132.004 319.339 132.335 319.419 132.687 319.504C133.049 319.579 133.385 319.701 133.695 319.872C134.004 320.032 134.26 320.256 134.463 320.544C134.665 320.832 134.767 321.227 134.767 321.728C134.767 322.187 134.665 322.576 134.463 322.896C134.271 323.205 134.015 323.456 133.695 323.648C133.385 323.84 133.033 323.979 132.639 324.064C132.244 324.149 131.849 324.192 131.455 324.192C130.857 324.192 130.308 324.107 129.807 323.936C129.305 323.765 128.857 323.456 128.463 323.008L129.743 321.808C129.988 322.085 130.249 322.315 130.527 322.496C130.815 322.667 131.161 322.752 131.567 322.752C131.705 322.752 131.849 322.736 131.999 322.704C132.148 322.672 132.287 322.619 132.415 322.544C132.543 322.469 132.644 322.379 132.719 322.272C132.804 322.155 132.847 322.021 132.847 321.872C132.847 321.605 132.745 321.408 132.543 321.28C132.34 321.152 132.084 321.051 131.775 320.976C131.465 320.891 131.129 320.816 130.767 320.752C130.415 320.677 130.084 320.565 129.775 320.416C129.465 320.256 129.209 320.037 129.007 319.76C128.804 319.483 128.703 319.099 128.703 318.608C128.703 318.181 128.788 317.813 128.959 317.504C129.14 317.184 129.375 316.923 129.663 316.72C129.951 316.517 130.281 316.368 130.655 316.272C131.028 316.176 131.407 316.128 131.791 316.128C132.303 316.128 132.809 316.219 133.311 316.4C133.812 316.571 134.217 316.869 134.527 317.296L133.247 318.448ZM144.834 312.672H146.578L151.458 324H149.154L148.098 321.408H143.186L142.162 324H139.906L144.834 312.672ZM147.394 319.68L145.65 315.072L143.874 319.68H147.394ZM152.541 316.32H154.365V317.552H154.397C154.578 317.168 154.856 316.837 155.229 316.56C155.602 316.272 156.109 316.128 156.749 316.128C157.261 316.128 157.693 316.213 158.045 316.384C158.408 316.555 158.701 316.779 158.925 317.056C159.149 317.333 159.309 317.653 159.405 318.016C159.501 318.379 159.549 318.757 159.549 319.152V324H157.629V320.112C157.629 319.899 157.618 319.664 157.597 319.408C157.576 319.141 157.517 318.896 157.421 318.672C157.336 318.437 157.197 318.245 157.005 318.096C156.813 317.936 156.552 317.856 156.221 317.856C155.901 317.856 155.629 317.909 155.405 318.016C155.192 318.123 155.01 318.267 154.861 318.448C154.722 318.629 154.621 318.837 154.557 319.072C154.493 319.307 154.461 319.552 154.461 319.808V324H152.541V316.32ZM163.233 312V328H161.601V312H163.233Z" fill="#3D4E61"/>
</g>
<path d="M87.8401 321.086L87.5339 321.438L87.8638 321.767L92.4821 326.385C92.4925 326.395 92.5 326.411 92.5 326.431C92.5 326.452 92.4925 326.468 92.4821 326.478L92.4821 326.478L92.4755 326.485C92.4677 326.493 92.4538 326.5 92.4354 326.5C92.4318 326.5 92.4242 326.499 92.4143 326.495C92.4047 326.491 92.3958 326.485 92.3886 326.478L87.7702 321.861L87.4405 321.531L87.0886 321.837C85.7516 323 84.0088 323.703 82.1031 323.703C77.9125 323.703 74.5 320.291 74.5 316.101C74.5 311.912 77.9085 308.5 82.1031 308.5C86.2939 308.5 89.7063 311.908 89.7063 316.101C89.7063 318.006 89.0031 319.749 87.8401 321.086ZM82.0989 308.637C77.9843 308.637 74.6335 311.983 74.6335 316.101C74.6335 320.22 77.9839 323.569 82.0989 323.569C86.2185 323.569 89.5643 320.215 89.5643 316.101C89.5643 311.987 86.2181 308.637 82.0989 308.637Z" fill="#687C94" stroke="#687C94"/>
</g>
<g filter="url(#filter5_d_0_1)">
<rect x="48" y="403" width="427" height="42" rx="4" fill="white"/>
<rect x="48.5" y="403.5" width="426" height="41" rx="3.5" stroke="#E1E7ED"/>
</g>
<g filter="url(#filter6_d_0_1)">
<path d="M83.352 428.076H87.972V429H82.344V419.088H83.352V428.076ZM94.622 425.724C94.622 425.36 94.5613 425.019 94.44 424.702C94.328 424.385 94.1647 424.109 93.95 423.876C93.7353 423.643 93.474 423.461 93.166 423.33C92.8673 423.19 92.5267 423.12 92.144 423.12C91.7613 423.12 91.416 423.19 91.108 423.33C90.8093 423.461 90.5527 423.643 90.338 423.876C90.1327 424.109 89.9693 424.385 89.848 424.702C89.736 425.019 89.68 425.36 89.68 425.724C89.68 426.088 89.736 426.429 89.848 426.746C89.9693 427.063 90.1327 427.339 90.338 427.572C90.5527 427.805 90.8093 427.992 91.108 428.132C91.416 428.263 91.7613 428.328 92.144 428.328C92.5267 428.328 92.8673 428.263 93.166 428.132C93.474 427.992 93.7353 427.805 93.95 427.572C94.1647 427.339 94.328 427.063 94.44 426.746C94.5613 426.429 94.622 426.088 94.622 425.724ZM95.63 425.724C95.63 426.219 95.5413 426.676 95.364 427.096C95.196 427.516 94.958 427.88 94.65 428.188C94.342 428.496 93.9733 428.739 93.544 428.916C93.124 429.084 92.6573 429.168 92.144 429.168C91.64 429.168 91.1733 429.084 90.744 428.916C90.324 428.739 89.96 428.496 89.652 428.188C89.344 427.88 89.1013 427.516 88.924 427.096C88.756 426.676 88.672 426.219 88.672 425.724C88.672 425.229 88.756 424.772 88.924 424.352C89.1013 423.932 89.344 423.568 89.652 423.26C89.96 422.952 90.324 422.714 90.744 422.546C91.1733 422.369 91.64 422.28 92.144 422.28C92.6573 422.28 93.124 422.369 93.544 422.546C93.9733 422.714 94.342 422.952 94.65 423.26C94.958 423.568 95.196 423.932 95.364 424.352C95.5413 424.772 95.63 425.229 95.63 425.724ZM100.779 424.002C100.639 423.731 100.452 423.517 100.219 423.358C99.9855 423.199 99.7008 423.12 99.3648 423.12C99.2062 423.12 99.0428 423.139 98.8748 423.176C98.7162 423.213 98.5715 423.274 98.4408 423.358C98.3102 423.433 98.2028 423.531 98.1188 423.652C98.0442 423.773 98.0068 423.923 98.0068 424.1C98.0068 424.408 98.1142 424.632 98.3288 424.772C98.5435 424.912 98.8655 425.033 99.2948 425.136L100.233 425.36C100.69 425.463 101.068 425.673 101.367 425.99C101.675 426.298 101.829 426.685 101.829 427.152C101.829 427.507 101.754 427.815 101.605 428.076C101.465 428.328 101.273 428.538 101.031 428.706C100.797 428.865 100.527 428.981 100.219 429.056C99.9108 429.131 99.5982 429.168 99.2808 429.168C98.7768 429.168 98.3055 429.075 97.8668 428.888C97.4375 428.692 97.0688 428.361 96.7608 427.894L97.5588 427.348C97.7455 427.647 97.9788 427.885 98.2588 428.062C98.5482 428.239 98.8888 428.328 99.2808 428.328C99.4675 428.328 99.6542 428.309 99.8408 428.272C100.027 428.225 100.191 428.16 100.331 428.076C100.48 427.983 100.597 427.866 100.681 427.726C100.774 427.586 100.821 427.423 100.821 427.236C100.821 426.909 100.699 426.676 100.457 426.536C100.214 426.387 99.9202 426.27 99.5748 426.186L98.6788 425.976C98.5668 425.948 98.4128 425.901 98.2168 425.836C98.0302 425.771 97.8435 425.673 97.6568 425.542C97.4795 425.411 97.3255 425.243 97.1948 425.038C97.0642 424.823 96.9988 424.562 96.9988 424.254C96.9988 423.918 97.0642 423.624 97.1948 423.372C97.3348 423.12 97.5168 422.915 97.7408 422.756C97.9742 422.597 98.2355 422.481 98.5248 422.406C98.8142 422.322 99.1128 422.28 99.4208 422.28C99.8782 422.28 100.303 422.369 100.695 422.546C101.087 422.723 101.39 423.027 101.605 423.456L100.779 424.002ZM108.802 425.472H113.1L110.958 420.264L108.802 425.472ZM107.332 429H106.156L110.468 419.088H111.448L115.76 429H114.584L113.492 426.396H108.424L107.332 429ZM117.644 422.448C117.663 422.625 117.672 422.803 117.672 422.98C117.681 423.148 117.686 423.321 117.686 423.498H117.714C117.817 423.321 117.947 423.157 118.106 423.008C118.265 422.859 118.442 422.733 118.638 422.63C118.834 422.518 119.039 422.434 119.254 422.378C119.478 422.313 119.697 422.28 119.912 422.28C120.752 422.28 121.373 422.504 121.774 422.952C122.175 423.391 122.376 424.021 122.376 424.842V429H121.452V425.374C121.452 424.646 121.326 424.091 121.074 423.708C120.822 423.316 120.355 423.12 119.674 423.12C119.627 423.12 119.497 423.139 119.282 423.176C119.067 423.213 118.839 423.316 118.596 423.484C118.363 423.652 118.153 423.904 117.966 424.24C117.779 424.576 117.686 425.043 117.686 425.64V429H116.762V423.89C116.762 423.713 116.753 423.489 116.734 423.218C116.725 422.947 116.711 422.691 116.692 422.448H117.644ZM125.213 425.64C125.213 425.985 125.274 426.312 125.395 426.62C125.526 426.919 125.699 427.185 125.913 427.418C126.137 427.642 126.394 427.824 126.683 427.964C126.982 428.095 127.304 428.16 127.649 428.16C127.985 428.16 128.303 428.099 128.601 427.978C128.909 427.857 129.18 427.689 129.413 427.474C129.647 427.25 129.824 426.984 129.945 426.676C130.076 426.368 130.137 426.023 130.127 425.64C130.127 425.295 130.071 424.973 129.959 424.674C129.847 424.366 129.684 424.1 129.469 423.876C129.255 423.643 128.993 423.461 128.685 423.33C128.377 423.19 128.032 423.12 127.649 423.12C127.304 423.12 126.982 423.19 126.683 423.33C126.394 423.461 126.137 423.643 125.913 423.876C125.699 424.1 125.526 424.366 125.395 424.674C125.274 424.973 125.213 425.295 125.213 425.64ZM125.045 430.316C125.316 430.68 125.666 430.969 126.095 431.184C126.534 431.408 127.019 431.52 127.551 431.52C128.018 431.52 128.415 431.45 128.741 431.31C129.068 431.179 129.329 430.997 129.525 430.764C129.731 430.531 129.875 430.255 129.959 429.938C130.053 429.63 130.099 429.299 130.099 428.944V427.768H130.071C129.773 428.216 129.409 428.533 128.979 428.72C128.55 428.907 128.097 429 127.621 429C127.145 429 126.697 428.916 126.277 428.748C125.867 428.58 125.507 428.351 125.199 428.062C124.891 427.763 124.649 427.409 124.471 426.998C124.294 426.587 124.205 426.144 124.205 425.668C124.205 425.192 124.289 424.749 124.457 424.338C124.625 423.927 124.854 423.568 125.143 423.26C125.442 422.952 125.792 422.714 126.193 422.546C126.604 422.369 127.052 422.28 127.537 422.28C127.733 422.28 127.939 422.299 128.153 422.336C128.377 422.373 128.597 422.439 128.811 422.532C129.035 422.625 129.255 422.756 129.469 422.924C129.684 423.083 129.885 423.288 130.071 423.54H130.099V422.448H131.023V428.944C131.023 429.299 130.977 429.677 130.883 430.078C130.799 430.479 130.627 430.848 130.365 431.184C130.113 431.52 129.759 431.8 129.301 432.024C128.844 432.248 128.247 432.36 127.509 432.36C126.856 432.36 126.273 432.253 125.759 432.038C125.246 431.823 124.779 431.492 124.359 431.044L125.045 430.316ZM138.196 425.22C138.196 424.595 138.009 424.091 137.636 423.708C137.262 423.316 136.74 423.12 136.068 423.12C135.769 423.12 135.48 423.181 135.2 423.302C134.92 423.414 134.672 423.568 134.458 423.764C134.252 423.96 134.084 424.184 133.954 424.436C133.832 424.688 133.772 424.949 133.772 425.22H138.196ZM133.744 425.976C133.772 426.303 133.851 426.611 133.982 426.9C134.112 427.189 134.285 427.441 134.5 427.656C134.714 427.861 134.962 428.025 135.242 428.146C135.522 428.267 135.825 428.328 136.152 428.328C136.646 428.328 137.071 428.216 137.426 427.992C137.79 427.759 138.065 427.493 138.252 427.194L138.966 427.782C138.574 428.277 138.14 428.631 137.664 428.846C137.197 429.061 136.693 429.168 136.152 429.168C135.666 429.168 135.214 429.084 134.794 428.916C134.383 428.739 134.028 428.496 133.73 428.188C133.431 427.88 133.193 427.516 133.016 427.096C132.848 426.676 132.764 426.219 132.764 425.724C132.764 425.229 132.848 424.772 133.016 424.352C133.184 423.932 133.417 423.568 133.716 423.26C134.014 422.952 134.364 422.714 134.766 422.546C135.167 422.369 135.601 422.28 136.068 422.28C136.562 422.28 137.006 422.369 137.398 422.546C137.79 422.723 138.116 422.961 138.378 423.26C138.648 423.549 138.854 423.895 138.994 424.296C139.134 424.688 139.204 425.108 139.204 425.556V425.976H133.744ZM142.013 429H141.089V418.416H142.013V429ZM149.338 425.22C149.338 424.595 149.152 424.091 148.778 423.708C148.405 423.316 147.882 423.12 147.21 423.12C146.912 423.12 146.622 423.181 146.342 423.302C146.062 423.414 145.815 423.568 145.6 423.764C145.395 423.96 145.227 424.184 145.096 424.436C144.975 424.688 144.914 424.949 144.914 425.22H149.338ZM144.886 425.976C144.914 426.303 144.994 426.611 145.124 426.9C145.255 427.189 145.428 427.441 145.642 427.656C145.857 427.861 146.104 428.025 146.384 428.146C146.664 428.267 146.968 428.328 147.294 428.328C147.789 428.328 148.214 428.216 148.568 427.992C148.932 427.759 149.208 427.493 149.394 427.194L150.108 427.782C149.716 428.277 149.282 428.631 148.806 428.846C148.34 429.061 147.836 429.168 147.294 429.168C146.809 429.168 146.356 429.084 145.936 428.916C145.526 428.739 145.171 428.496 144.872 428.188C144.574 427.88 144.336 427.516 144.158 427.096C143.99 426.676 143.906 426.219 143.906 425.724C143.906 425.229 143.99 424.772 144.158 424.352C144.326 423.932 144.56 423.568 144.858 423.26C145.157 422.952 145.507 422.714 145.908 422.546C146.31 422.369 146.744 422.28 147.21 422.28C147.705 422.28 148.148 422.369 148.54 422.546C148.932 422.723 149.259 422.961 149.52 423.26C149.791 423.549 149.996 423.895 150.136 424.296C150.276 424.688 150.346 425.108 150.346 425.556V425.976H144.886ZM155.494 424.002C155.354 423.731 155.167 423.517 154.934 423.358C154.7 423.199 154.416 423.12 154.08 423.12C153.921 423.12 153.758 423.139 153.59 423.176C153.431 423.213 153.286 423.274 153.156 423.358C153.025 423.433 152.918 423.531 152.834 423.652C152.759 423.773 152.722 423.923 152.722 424.1C152.722 424.408 152.829 424.632 153.044 424.772C153.258 424.912 153.58 425.033 154.01 425.136L154.948 425.36C155.405 425.463 155.783 425.673 156.082 425.99C156.39 426.298 156.544 426.685 156.544 427.152C156.544 427.507 156.469 427.815 156.32 428.076C156.18 428.328 155.988 428.538 155.746 428.706C155.512 428.865 155.242 428.981 154.934 429.056C154.626 429.131 154.313 429.168 153.996 429.168C153.492 429.168 153.02 429.075 152.582 428.888C152.152 428.692 151.784 428.361 151.476 427.894L152.274 427.348C152.46 427.647 152.694 427.885 152.974 428.062C153.263 428.239 153.604 428.328 153.996 428.328C154.182 428.328 154.369 428.309 154.556 428.272C154.742 428.225 154.906 428.16 155.046 428.076C155.195 427.983 155.312 427.866 155.396 427.726C155.489 427.586 155.536 427.423 155.536 427.236C155.536 426.909 155.414 426.676 155.172 426.536C154.929 426.387 154.635 426.27 154.29 426.186L153.394 425.976C153.282 425.948 153.128 425.901 152.932 425.836C152.745 425.771 152.558 425.673 152.372 425.542C152.194 425.411 152.04 425.243 151.91 425.038C151.779 424.823 151.714 424.562 151.714 424.254C151.714 423.918 151.779 423.624 151.91 423.372C152.05 423.12 152.232 422.915 152.456 422.756C152.689 422.597 152.95 422.481 153.24 422.406C153.529 422.322 153.828 422.28 154.136 422.28C154.593 422.28 155.018 422.369 155.41 422.546C155.802 422.723 156.105 423.027 156.32 423.456L155.494 424.002Z" fill="#3D4E61"/>
</g>
<path d="M71.9049 428.439L69.2311 425.766C69.9483 424.941 70.3826 423.866 70.3826 422.69C70.3826 420.102 68.2772 418 65.6913 418C63.1029 418 61 420.105 61 422.69C61 425.276 63.1053 427.38 65.6913 427.38C66.8672 427.38 67.943 426.946 68.7676 426.229L71.4413 428.902C71.5048 428.966 71.5902 429 71.6731 429C71.756 429 71.8414 428.968 71.9049 428.902C72.0317 428.776 72.0317 428.566 71.9049 428.439ZM61.6562 422.69C61.6562 420.466 63.4664 418.659 65.6888 418.659C67.9137 418.659 69.7214 420.468 69.7214 422.69C69.7214 424.912 67.9137 426.724 65.6888 426.724C63.4664 426.724 61.6562 424.915 61.6562 422.69Z" fill="#687C94"/>
<g filter="url(#filter7_d_0_1)">
<rect x="48" y="481" width="427" height="42" rx="4" fill="white"/>
<rect x="48.5" y="481.5" width="426" height="41" rx="3.5" stroke="#E1E7ED"/>
</g>
<path d="M83.352 506.076H87.972V507H82.344V497.088H83.352V506.076ZM94.622 503.724C94.622 503.36 94.5613 503.019 94.44 502.702C94.328 502.385 94.1647 502.109 93.95 501.876C93.7353 501.643 93.474 501.461 93.166 501.33C92.8673 501.19 92.5267 501.12 92.144 501.12C91.7613 501.12 91.416 501.19 91.108 501.33C90.8093 501.461 90.5527 501.643 90.338 501.876C90.1327 502.109 89.9693 502.385 89.848 502.702C89.736 503.019 89.68 503.36 89.68 503.724C89.68 504.088 89.736 504.429 89.848 504.746C89.9693 505.063 90.1327 505.339 90.338 505.572C90.5527 505.805 90.8093 505.992 91.108 506.132C91.416 506.263 91.7613 506.328 92.144 506.328C92.5267 506.328 92.8673 506.263 93.166 506.132C93.474 505.992 93.7353 505.805 93.95 505.572C94.1647 505.339 94.328 505.063 94.44 504.746C94.5613 504.429 94.622 504.088 94.622 503.724ZM95.63 503.724C95.63 504.219 95.5413 504.676 95.364 505.096C95.196 505.516 94.958 505.88 94.65 506.188C94.342 506.496 93.9733 506.739 93.544 506.916C93.124 507.084 92.6573 507.168 92.144 507.168C91.64 507.168 91.1733 507.084 90.744 506.916C90.324 506.739 89.96 506.496 89.652 506.188C89.344 505.88 89.1013 505.516 88.924 505.096C88.756 504.676 88.672 504.219 88.672 503.724C88.672 503.229 88.756 502.772 88.924 502.352C89.1013 501.932 89.344 501.568 89.652 501.26C89.96 500.952 90.324 500.714 90.744 500.546C91.1733 500.369 91.64 500.28 92.144 500.28C92.6573 500.28 93.124 500.369 93.544 500.546C93.9733 500.714 94.342 500.952 94.65 501.26C94.958 501.568 95.196 501.932 95.364 502.352C95.5413 502.772 95.63 503.229 95.63 503.724ZM100.779 502.002C100.639 501.731 100.452 501.517 100.219 501.358C99.9855 501.199 99.7008 501.12 99.3648 501.12C99.2062 501.12 99.0428 501.139 98.8748 501.176C98.7162 501.213 98.5715 501.274 98.4408 501.358C98.3102 501.433 98.2028 501.531 98.1188 501.652C98.0442 501.773 98.0068 501.923 98.0068 502.1C98.0068 502.408 98.1142 502.632 98.3288 502.772C98.5435 502.912 98.8655 503.033 99.2948 503.136L100.233 503.36C100.69 503.463 101.068 503.673 101.367 503.99C101.675 504.298 101.829 504.685 101.829 505.152C101.829 505.507 101.754 505.815 101.605 506.076C101.465 506.328 101.273 506.538 101.031 506.706C100.797 506.865 100.527 506.981 100.219 507.056C99.9108 507.131 99.5982 507.168 99.2808 507.168C98.7768 507.168 98.3055 507.075 97.8668 506.888C97.4375 506.692 97.0688 506.361 96.7608 505.894L97.5588 505.348C97.7455 505.647 97.9788 505.885 98.2588 506.062C98.5482 506.239 98.8888 506.328 99.2808 506.328C99.4675 506.328 99.6542 506.309 99.8408 506.272C100.027 506.225 100.191 506.16 100.331 506.076C100.48 505.983 100.597 505.866 100.681 505.726C100.774 505.586 100.821 505.423 100.821 505.236C100.821 504.909 100.699 504.676 100.457 504.536C100.214 504.387 99.9202 504.27 99.5748 504.186L98.6788 503.976C98.5668 503.948 98.4128 503.901 98.2168 503.836C98.0302 503.771 97.8435 503.673 97.6568 503.542C97.4795 503.411 97.3255 503.243 97.1948 503.038C97.0642 502.823 96.9988 502.562 96.9988 502.254C96.9988 501.918 97.0642 501.624 97.1948 501.372C97.3348 501.12 97.5168 500.915 97.7408 500.756C97.9742 500.597 98.2355 500.481 98.5248 500.406C98.8142 500.322 99.1128 500.28 99.4208 500.28C99.8782 500.28 100.303 500.369 100.695 500.546C101.087 500.723 101.39 501.027 101.605 501.456L100.779 502.002ZM108.802 503.472H113.1L110.958 498.264L108.802 503.472ZM107.332 507H106.156L110.468 497.088H111.448L115.76 507H114.584L113.492 504.396H108.424L107.332 507ZM117.644 500.448C117.663 500.625 117.672 500.803 117.672 500.98C117.681 501.148 117.686 501.321 117.686 501.498H117.714C117.817 501.321 117.947 501.157 118.106 501.008C118.265 500.859 118.442 500.733 118.638 500.63C118.834 500.518 119.039 500.434 119.254 500.378C119.478 500.313 119.697 500.28 119.912 500.28C120.752 500.28 121.373 500.504 121.774 500.952C122.175 501.391 122.376 502.021 122.376 502.842V507H121.452V503.374C121.452 502.646 121.326 502.091 121.074 501.708C120.822 501.316 120.355 501.12 119.674 501.12C119.627 501.12 119.497 501.139 119.282 501.176C119.067 501.213 118.839 501.316 118.596 501.484C118.363 501.652 118.153 501.904 117.966 502.24C117.779 502.576 117.686 503.043 117.686 503.64V507H116.762V501.89C116.762 501.713 116.753 501.489 116.734 501.218C116.725 500.947 116.711 500.691 116.692 500.448H117.644ZM125.213 503.64C125.213 503.985 125.274 504.312 125.395 504.62C125.526 504.919 125.699 505.185 125.913 505.418C126.137 505.642 126.394 505.824 126.683 505.964C126.982 506.095 127.304 506.16 127.649 506.16C127.985 506.16 128.303 506.099 128.601 505.978C128.909 505.857 129.18 505.689 129.413 505.474C129.647 505.25 129.824 504.984 129.945 504.676C130.076 504.368 130.137 504.023 130.127 503.64C130.127 503.295 130.071 502.973 129.959 502.674C129.847 502.366 129.684 502.1 129.469 501.876C129.255 501.643 128.993 501.461 128.685 501.33C128.377 501.19 128.032 501.12 127.649 501.12C127.304 501.12 126.982 501.19 126.683 501.33C126.394 501.461 126.137 501.643 125.913 501.876C125.699 502.1 125.526 502.366 125.395 502.674C125.274 502.973 125.213 503.295 125.213 503.64ZM125.045 508.316C125.316 508.68 125.666 508.969 126.095 509.184C126.534 509.408 127.019 509.52 127.551 509.52C128.018 509.52 128.415 509.45 128.741 509.31C129.068 509.179 129.329 508.997 129.525 508.764C129.731 508.531 129.875 508.255 129.959 507.938C130.053 507.63 130.099 507.299 130.099 506.944V505.768H130.071C129.773 506.216 129.409 506.533 128.979 506.72C128.55 506.907 128.097 507 127.621 507C127.145 507 126.697 506.916 126.277 506.748C125.867 506.58 125.507 506.351 125.199 506.062C124.891 505.763 124.649 505.409 124.471 504.998C124.294 504.587 124.205 504.144 124.205 503.668C124.205 503.192 124.289 502.749 124.457 502.338C124.625 501.927 124.854 501.568 125.143 501.26C125.442 500.952 125.792 500.714 126.193 500.546C126.604 500.369 127.052 500.28 127.537 500.28C127.733 500.28 127.939 500.299 128.153 500.336C128.377 500.373 128.597 500.439 128.811 500.532C129.035 500.625 129.255 500.756 129.469 500.924C129.684 501.083 129.885 501.288 130.071 501.54H130.099V500.448H131.023V506.944C131.023 507.299 130.977 507.677 130.883 508.078C130.799 508.479 130.627 508.848 130.365 509.184C130.113 509.52 129.759 509.8 129.301 510.024C128.844 510.248 128.247 510.36 127.509 510.36C126.856 510.36 126.273 510.253 125.759 510.038C125.246 509.823 124.779 509.492 124.359 509.044L125.045 508.316ZM138.196 503.22C138.196 502.595 138.009 502.091 137.636 501.708C137.262 501.316 136.74 501.12 136.068 501.12C135.769 501.12 135.48 501.181 135.2 501.302C134.92 501.414 134.672 501.568 134.458 501.764C134.252 501.96 134.084 502.184 133.954 502.436C133.832 502.688 133.772 502.949 133.772 503.22H138.196ZM133.744 503.976C133.772 504.303 133.851 504.611 133.982 504.9C134.112 505.189 134.285 505.441 134.5 505.656C134.714 505.861 134.962 506.025 135.242 506.146C135.522 506.267 135.825 506.328 136.152 506.328C136.646 506.328 137.071 506.216 137.426 505.992C137.79 505.759 138.065 505.493 138.252 505.194L138.966 505.782C138.574 506.277 138.14 506.631 137.664 506.846C137.197 507.061 136.693 507.168 136.152 507.168C135.666 507.168 135.214 507.084 134.794 506.916C134.383 506.739 134.028 506.496 133.73 506.188C133.431 505.88 133.193 505.516 133.016 505.096C132.848 504.676 132.764 504.219 132.764 503.724C132.764 503.229 132.848 502.772 133.016 502.352C133.184 501.932 133.417 501.568 133.716 501.26C134.014 500.952 134.364 500.714 134.766 500.546C135.167 500.369 135.601 500.28 136.068 500.28C136.562 500.28 137.006 500.369 137.398 500.546C137.79 500.723 138.116 500.961 138.378 501.26C138.648 501.549 138.854 501.895 138.994 502.296C139.134 502.688 139.204 503.108 139.204 503.556V503.976H133.744ZM142.013 507H141.089V496.416H142.013V507ZM149.338 503.22C149.338 502.595 149.152 502.091 148.778 501.708C148.405 501.316 147.882 501.12 147.21 501.12C146.912 501.12 146.622 501.181 146.342 501.302C146.062 501.414 145.815 501.568 145.6 501.764C145.395 501.96 145.227 502.184 145.096 502.436C144.975 502.688 144.914 502.949 144.914 503.22H149.338ZM144.886 503.976C144.914 504.303 144.994 504.611 145.124 504.9C145.255 505.189 145.428 505.441 145.642 505.656C145.857 505.861 146.104 506.025 146.384 506.146C146.664 506.267 146.968 506.328 147.294 506.328C147.789 506.328 148.214 506.216 148.568 505.992C148.932 505.759 149.208 505.493 149.394 505.194L150.108 505.782C149.716 506.277 149.282 506.631 148.806 506.846C148.34 507.061 147.836 507.168 147.294 507.168C146.809 507.168 146.356 507.084 145.936 506.916C145.526 506.739 145.171 506.496 144.872 506.188C144.574 505.88 144.336 505.516 144.158 505.096C143.99 504.676 143.906 504.219 143.906 503.724C143.906 503.229 143.99 502.772 144.158 502.352C144.326 501.932 144.56 501.568 144.858 501.26C145.157 500.952 145.507 500.714 145.908 500.546C146.31 500.369 146.744 500.28 147.21 500.28C147.705 500.28 148.148 500.369 148.54 500.546C148.932 500.723 149.259 500.961 149.52 501.26C149.791 501.549 149.996 501.895 150.136 502.296C150.276 502.688 150.346 503.108 150.346 503.556V503.976H144.886ZM155.494 502.002C155.354 501.731 155.167 501.517 154.934 501.358C154.7 501.199 154.416 501.12 154.08 501.12C153.921 501.12 153.758 501.139 153.59 501.176C153.431 501.213 153.286 501.274 153.156 501.358C153.025 501.433 152.918 501.531 152.834 501.652C152.759 501.773 152.722 501.923 152.722 502.1C152.722 502.408 152.829 502.632 153.044 502.772C153.258 502.912 153.58 503.033 154.01 503.136L154.948 503.36C155.405 503.463 155.783 503.673 156.082 503.99C156.39 504.298 156.544 504.685 156.544 505.152C156.544 505.507 156.469 505.815 156.32 506.076C156.18 506.328 155.988 506.538 155.746 506.706C155.512 506.865 155.242 506.981 154.934 507.056C154.626 507.131 154.313 507.168 153.996 507.168C153.492 507.168 153.02 507.075 152.582 506.888C152.152 506.692 151.784 506.361 151.476 505.894L152.274 505.348C152.46 505.647 152.694 505.885 152.974 506.062C153.263 506.239 153.604 506.328 153.996 506.328C154.182 506.328 154.369 506.309 154.556 506.272C154.742 506.225 154.906 506.16 155.046 506.076C155.195 505.983 155.312 505.866 155.396 505.726C155.489 505.586 155.536 505.423 155.536 505.236C155.536 504.909 155.414 504.676 155.172 504.536C154.929 504.387 154.635 504.27 154.29 504.186L153.394 503.976C153.282 503.948 153.128 503.901 152.932 503.836C152.745 503.771 152.558 503.673 152.372 503.542C152.194 503.411 152.04 503.243 151.91 503.038C151.779 502.823 151.714 502.562 151.714 502.254C151.714 501.918 151.779 501.624 151.91 501.372C152.05 501.12 152.232 500.915 152.456 500.756C152.689 500.597 152.95 500.481 153.24 500.406C153.529 500.322 153.828 500.28 154.136 500.28C154.593 500.28 155.018 500.369 155.41 500.546C155.802 500.723 156.105 501.027 156.32 501.456L155.494 502.002Z" fill="#3D4E61"/>
<path d="M71.9049 506.439L69.2311 503.766C69.9483 502.941 70.3826 501.866 70.3826 500.69C70.3826 498.102 68.2772 496 65.6913 496C63.1029 496 61 498.105 61 500.69C61 503.276 63.1053 505.38 65.6913 505.38C66.8672 505.38 67.943 504.946 68.7676 504.229L71.4413 506.902C71.5048 506.966 71.5902 507 71.6731 507C71.756 507 71.8414 506.968 71.9049 506.902C72.0317 506.776 72.0317 506.566 71.9049 506.439ZM61.6562 500.69C61.6562 498.466 63.4664 496.659 65.6888 496.659C67.9137 496.659 69.7214 498.468 69.7214 500.69C69.7214 502.912 67.9137 504.724 65.6888 504.724C63.4664 504.724 61.6562 502.915 61.6562 500.69Z" fill="#687C94"/>
<rect x="48.5" y="559.5" width="426" height="41" rx="2.5" fill="url(#paint1_linear_0_1)" stroke="#E1E7ED"/>
<path d="M82.106 575.088H83.87V583.404H88.084V585H82.106V575.088ZM88.8758 581.64C88.8758 581.108 88.9691 580.627 89.1558 580.198C89.3518 579.759 89.6131 579.386 89.9398 579.078C90.2664 578.77 90.6538 578.532 91.1018 578.364C91.5498 578.196 92.0258 578.112 92.5298 578.112C93.0338 578.112 93.5098 578.196 93.9578 578.364C94.4058 578.532 94.7931 578.77 95.1198 579.078C95.4464 579.386 95.7031 579.759 95.8898 580.198C96.0858 580.627 96.1838 581.108 96.1838 581.64C96.1838 582.172 96.0858 582.657 95.8898 583.096C95.7031 583.525 95.4464 583.894 95.1198 584.202C94.7931 584.51 94.4058 584.748 93.9578 584.916C93.5098 585.084 93.0338 585.168 92.5298 585.168C92.0258 585.168 91.5498 585.084 91.1018 584.916C90.6538 584.748 90.2664 584.51 89.9398 584.202C89.6131 583.894 89.3518 583.525 89.1558 583.096C88.9691 582.657 88.8758 582.172 88.8758 581.64ZM90.5558 581.64C90.5558 581.901 90.5978 582.153 90.6818 582.396C90.7751 582.639 90.9058 582.853 91.0738 583.04C91.2511 583.227 91.4611 583.376 91.7038 583.488C91.9464 583.6 92.2218 583.656 92.5298 583.656C92.8378 583.656 93.1131 583.6 93.3558 583.488C93.5984 583.376 93.8038 583.227 93.9718 583.04C94.1491 582.853 94.2798 582.639 94.3638 582.396C94.4571 582.153 94.5038 581.901 94.5038 581.64C94.5038 581.379 94.4571 581.127 94.3638 580.884C94.2798 580.641 94.1491 580.427 93.9718 580.24C93.8038 580.053 93.5984 579.904 93.3558 579.792C93.1131 579.68 92.8378 579.624 92.5298 579.624C92.2218 579.624 91.9464 579.68 91.7038 579.792C91.4611 579.904 91.2511 580.053 91.0738 580.24C90.9058 580.427 90.7751 580.641 90.6818 580.884C90.5978 581.127 90.5558 581.379 90.5558 581.64ZM101.341 580.142C101.014 579.685 100.575 579.456 100.025 579.456C99.8007 579.456 99.5814 579.512 99.3667 579.624C99.152 579.736 99.0447 579.918 99.0447 580.17C99.0447 580.375 99.1334 580.525 99.3107 580.618C99.488 580.711 99.712 580.791 99.9827 580.856C100.253 580.921 100.543 580.991 100.851 581.066C101.168 581.131 101.462 581.239 101.733 581.388C102.003 581.528 102.227 581.724 102.405 581.976C102.582 582.228 102.671 582.573 102.671 583.012C102.671 583.413 102.582 583.754 102.405 584.034C102.237 584.305 102.013 584.524 101.733 584.692C101.462 584.86 101.154 584.981 100.809 585.056C100.463 585.131 100.118 585.168 99.7727 585.168C99.25 585.168 98.7694 585.093 98.3307 584.944C97.892 584.795 97.5 584.524 97.1547 584.132L98.2747 583.082C98.4894 583.325 98.718 583.525 98.9607 583.684C99.2127 583.833 99.516 583.908 99.8707 583.908C99.992 583.908 100.118 583.894 100.249 583.866C100.379 583.838 100.501 583.791 100.613 583.726C100.725 583.661 100.813 583.581 100.879 583.488C100.953 583.385 100.991 583.269 100.991 583.138C100.991 582.905 100.902 582.732 100.725 582.62C100.547 582.508 100.323 582.419 100.053 582.354C99.782 582.279 99.488 582.214 99.1707 582.158C98.8627 582.093 98.5734 581.995 98.3027 581.864C98.032 581.724 97.808 581.533 97.6307 581.29C97.4534 581.047 97.3647 580.711 97.3647 580.282C97.3647 579.909 97.4394 579.587 97.5887 579.316C97.7474 579.036 97.9527 578.807 98.2047 578.63C98.4567 578.453 98.746 578.322 99.0727 578.238C99.3994 578.154 99.7307 578.112 100.067 578.112C100.515 578.112 100.958 578.191 101.397 578.35C101.835 578.499 102.19 578.761 102.461 579.134L101.341 580.142ZM111.48 575.088H113.006L117.276 585H115.26L114.336 582.732H110.038L109.142 585H107.168L111.48 575.088ZM113.72 581.22L112.194 577.188L110.64 581.22H113.72ZM118.223 578.28H119.819V579.358H119.847C120.006 579.022 120.249 578.733 120.575 578.49C120.902 578.238 121.345 578.112 121.905 578.112C122.353 578.112 122.731 578.187 123.039 578.336C123.357 578.485 123.613 578.681 123.809 578.924C124.005 579.167 124.145 579.447 124.229 579.764C124.313 580.081 124.355 580.413 124.355 580.758V585H122.675V581.598C122.675 581.411 122.666 581.206 122.647 580.982C122.629 580.749 122.577 580.534 122.493 580.338C122.419 580.133 122.297 579.965 122.129 579.834C121.961 579.694 121.733 579.624 121.443 579.624C121.163 579.624 120.925 579.671 120.729 579.764C120.543 579.857 120.384 579.983 120.253 580.142C120.132 580.301 120.043 580.483 119.987 580.688C119.931 580.893 119.903 581.108 119.903 581.332V585H118.223V578.28ZM133.179 578.28V584.398C133.179 585.005 133.104 585.551 132.955 586.036C132.805 586.531 132.572 586.946 132.255 587.282C131.947 587.627 131.555 587.893 131.079 588.08C130.603 588.267 130.038 588.36 129.385 588.36C128.759 588.36 128.167 588.281 127.607 588.122C127.047 587.963 126.529 587.674 126.053 587.254L127.061 585.882C127.397 586.19 127.747 586.428 128.111 586.596C128.475 586.764 128.895 586.848 129.371 586.848C129.772 586.848 130.108 586.792 130.379 586.68C130.659 586.568 130.878 586.414 131.037 586.218C131.205 586.022 131.321 585.784 131.387 585.504C131.461 585.233 131.499 584.93 131.499 584.594V584.104H131.471C131.228 584.431 130.906 584.678 130.505 584.846C130.103 585.005 129.693 585.084 129.273 585.084C128.769 585.084 128.311 584.995 127.901 584.818C127.49 584.631 127.135 584.384 126.837 584.076C126.547 583.768 126.323 583.404 126.165 582.984C126.006 582.564 125.927 582.116 125.927 581.64C125.927 581.145 126.001 580.683 126.151 580.254C126.3 579.825 126.519 579.451 126.809 579.134C127.098 578.817 127.443 578.569 127.845 578.392C128.255 578.205 128.722 578.112 129.245 578.112C129.721 578.112 130.164 578.205 130.575 578.392C130.985 578.579 131.312 578.877 131.555 579.288H131.583V578.28H133.179ZM129.595 579.624C129.296 579.624 129.025 579.675 128.783 579.778C128.54 579.871 128.33 580.007 128.153 580.184C127.985 580.352 127.849 580.562 127.747 580.814C127.653 581.057 127.607 581.327 127.607 581.626C127.607 581.897 127.653 582.149 127.747 582.382C127.849 582.615 127.989 582.821 128.167 582.998C128.344 583.175 128.554 583.315 128.797 583.418C129.039 583.521 129.301 583.572 129.581 583.572C129.889 583.572 130.164 583.521 130.407 583.418C130.659 583.315 130.869 583.18 131.037 583.012C131.214 582.835 131.349 582.625 131.443 582.382C131.536 582.139 131.583 581.878 131.583 581.598C131.583 581.01 131.405 580.534 131.051 580.17C130.696 579.806 130.211 579.624 129.595 579.624ZM136.397 574.5V588.5H134.969V574.5H136.397Z" fill="#3D4E61"/>
<path d="M71.9049 584.439L69.2311 581.766C69.9483 580.941 70.3826 579.866 70.3826 578.69C70.3826 576.102 68.2772 574 65.6913 574C63.1029 574 61 576.105 61 578.69C61 581.276 63.1053 583.38 65.6913 583.38C66.8672 583.38 67.943 582.946 68.7676 582.229L71.4413 584.902C71.5048 584.966 71.5902 585 71.6731 585C71.756 585 71.8414 584.968 71.9049 584.902C72.0317 584.776 72.0317 584.566 71.9049 584.439ZM61.6562 578.69C61.6562 576.466 63.4664 574.659 65.6888 574.659C67.9137 574.659 69.7214 576.468 69.7214 578.69C69.7214 580.912 67.9137 582.724 65.6888 582.724C63.4664 582.724 61.6562 580.915 61.6562 578.69Z" fill="#687C94"/>
<path d="M97.1553 61V51.0469H99.9648C100.831 51.0469 101.596 51.2383 102.262 51.6211C102.927 52.0039 103.44 52.5485 103.8 53.2549C104.164 53.9613 104.349 54.7725 104.354 55.6885V56.3242C104.354 57.263 104.171 58.0856 103.807 58.792C103.447 59.4984 102.929 60.0407 102.255 60.4189C101.585 60.7972 100.803 60.9909 99.9102 61H97.1553ZM98.4678 52.127V59.9268H99.8486C100.86 59.9268 101.646 59.6123 102.207 58.9834C102.772 58.3545 103.055 57.459 103.055 56.2969V55.7158C103.055 54.5856 102.788 53.7083 102.255 53.084C101.726 52.4551 100.974 52.1361 99.999 52.127H98.4678ZM109.214 61.1367C108.211 61.1367 107.396 60.8086 106.767 60.1523C106.138 59.4915 105.823 58.6097 105.823 57.5068V57.2744C105.823 56.5407 105.962 55.8867 106.24 55.3125C106.523 54.7337 106.915 54.2826 107.416 53.959C107.922 53.6309 108.469 53.4668 109.057 53.4668C110.018 53.4668 110.766 53.7835 111.299 54.417C111.832 55.0505 112.099 55.9574 112.099 57.1377V57.6641H107.088C107.106 58.3932 107.318 58.9834 107.724 59.4346C108.134 59.8812 108.653 60.1045 109.282 60.1045C109.729 60.1045 110.107 60.0133 110.417 59.8311C110.727 59.6488 110.998 59.4072 111.23 59.1064L112.003 59.708C111.383 60.6605 110.453 61.1367 109.214 61.1367ZM109.057 54.5059C108.546 54.5059 108.118 54.6927 107.771 55.0664C107.425 55.4355 107.211 55.9551 107.129 56.625H110.834V56.5293C110.798 55.8867 110.624 55.39 110.314 55.0391C110.005 54.6836 109.585 54.5059 109.057 54.5059ZM114.19 61V54.5811H113.021V53.6035H114.19V52.8447C114.19 52.0518 114.402 51.4388 114.826 51.0059C115.25 50.5729 115.849 50.3564 116.624 50.3564C116.916 50.3564 117.205 50.3952 117.492 50.4727L117.424 51.498C117.21 51.457 116.982 51.4365 116.74 51.4365C116.33 51.4365 116.013 51.5573 115.79 51.7988C115.567 52.0358 115.455 52.3776 115.455 52.8242V53.6035H117.034V54.5811H115.455V61H114.19ZM123.002 61C122.929 60.8542 122.87 60.5944 122.824 60.2207C122.236 60.8314 121.535 61.1367 120.719 61.1367C119.99 61.1367 119.39 60.9316 118.921 60.5215C118.456 60.1068 118.224 59.5827 118.224 58.9492C118.224 58.179 118.515 57.582 119.099 57.1582C119.687 56.7298 120.511 56.5156 121.573 56.5156H122.804V55.9346C122.804 55.4925 122.672 55.1416 122.407 54.8818C122.143 54.6175 121.753 54.4854 121.238 54.4854C120.787 54.4854 120.409 54.5993 120.104 54.8271C119.798 55.055 119.646 55.3307 119.646 55.6543H118.374C118.374 55.2852 118.504 54.9297 118.764 54.5879C119.028 54.2415 119.383 53.9681 119.83 53.7676C120.281 53.5671 120.776 53.4668 121.313 53.4668C122.166 53.4668 122.833 53.681 123.316 54.1094C123.799 54.5332 124.05 55.1188 124.068 55.8662V59.2705C124.068 59.9495 124.155 60.4896 124.328 60.8906V61H123.002ZM120.903 60.0361C121.3 60.0361 121.676 59.9336 122.031 59.7285C122.387 59.5234 122.644 59.2568 122.804 58.9287V57.4111H121.812C120.263 57.4111 119.488 57.8646 119.488 58.7715C119.488 59.168 119.62 59.4779 119.885 59.7012C120.149 59.9245 120.489 60.0361 120.903 60.0361ZM130.617 60.2686C130.125 60.8473 129.403 61.1367 128.45 61.1367C127.662 61.1367 127.06 60.9089 126.646 60.4531C126.235 59.9928 126.028 59.3138 126.023 58.416V53.6035H127.288V58.3818C127.288 59.5029 127.744 60.0635 128.655 60.0635C129.621 60.0635 130.264 59.7035 130.583 58.9834V53.6035H131.848V61H130.645L130.617 60.2686ZM135.149 61H133.885V50.5H135.149V61ZM138.896 51.8125V53.6035H140.276V54.5811H138.896V59.168C138.896 59.4642 138.957 59.6875 139.08 59.8379C139.203 59.9837 139.413 60.0566 139.709 60.0566C139.855 60.0566 140.055 60.0293 140.311 59.9746V61C139.978 61.0911 139.654 61.1367 139.34 61.1367C138.775 61.1367 138.349 60.9658 138.062 60.624C137.774 60.2822 137.631 59.7969 137.631 59.168V54.5811H136.284V53.6035H137.631V51.8125H138.896Z" fill="black"/>
<path d="M110.805 164H109.485V159.399H104.468V164H103.155V154.047H104.468V158.326H109.485V154.047H110.805V164ZM112.603 160.233C112.603 159.509 112.744 158.857 113.026 158.278C113.313 157.7 113.71 157.253 114.216 156.938C114.726 156.624 115.307 156.467 115.959 156.467C116.966 156.467 117.78 156.815 118.399 157.513C119.024 158.21 119.336 159.137 119.336 160.295V160.384C119.336 161.104 119.197 161.751 118.919 162.325C118.646 162.895 118.251 163.339 117.736 163.658C117.226 163.977 116.638 164.137 115.973 164.137C114.97 164.137 114.157 163.788 113.532 163.091C112.912 162.394 112.603 161.471 112.603 160.322V160.233ZM113.874 160.384C113.874 161.204 114.063 161.863 114.441 162.359C114.824 162.856 115.335 163.104 115.973 163.104C116.615 163.104 117.126 162.854 117.504 162.353C117.882 161.847 118.071 161.14 118.071 160.233C118.071 159.422 117.878 158.766 117.49 158.265C117.107 157.759 116.597 157.506 115.959 157.506C115.335 157.506 114.831 157.754 114.448 158.251C114.065 158.748 113.874 159.459 113.874 160.384ZM123.253 162.284L125.085 156.604H126.377L123.725 164H122.761L120.081 156.604H121.373L123.253 162.284ZM130.567 164.137C129.565 164.137 128.749 163.809 128.12 163.152C127.491 162.492 127.177 161.61 127.177 160.507V160.274C127.177 159.541 127.316 158.887 127.594 158.312C127.876 157.734 128.268 157.283 128.77 156.959C129.275 156.631 129.822 156.467 130.41 156.467C131.372 156.467 132.119 156.784 132.652 157.417C133.186 158.05 133.452 158.957 133.452 160.138V160.664H128.441C128.46 161.393 128.672 161.983 129.077 162.435C129.487 162.881 130.007 163.104 130.636 163.104C131.082 163.104 131.461 163.013 131.771 162.831C132.08 162.649 132.352 162.407 132.584 162.106L133.356 162.708C132.737 163.66 131.807 164.137 130.567 164.137ZM130.41 157.506C129.9 157.506 129.471 157.693 129.125 158.066C128.779 158.436 128.564 158.955 128.482 159.625H132.188V159.529C132.151 158.887 131.978 158.39 131.668 158.039C131.358 157.684 130.939 157.506 130.41 157.506ZM138.497 157.738C138.306 157.706 138.098 157.69 137.875 157.69C137.046 157.69 136.483 158.044 136.187 158.75V164H134.922V156.604H136.152L136.173 157.458C136.588 156.797 137.175 156.467 137.937 156.467C138.183 156.467 138.369 156.499 138.497 156.562V157.738Z" fill="black"/>
<path d="M108.645 265.604H104.468V270H103.155V260.047H109.321V261.127H104.468V264.531H108.645V265.604ZM110.21 266.233C110.21 265.509 110.351 264.857 110.634 264.278C110.921 263.7 111.317 263.253 111.823 262.938C112.334 262.624 112.915 262.467 113.566 262.467C114.574 262.467 115.387 262.815 116.007 263.513C116.631 264.21 116.943 265.137 116.943 266.295V266.384C116.943 267.104 116.804 267.751 116.526 268.325C116.253 268.895 115.859 269.339 115.344 269.658C114.833 269.977 114.245 270.137 113.58 270.137C112.577 270.137 111.764 269.788 111.14 269.091C110.52 268.394 110.21 267.471 110.21 266.322V266.233ZM111.481 266.384C111.481 267.204 111.671 267.863 112.049 268.359C112.432 268.856 112.942 269.104 113.58 269.104C114.223 269.104 114.733 268.854 115.111 268.353C115.49 267.847 115.679 267.14 115.679 266.233C115.679 265.422 115.485 264.766 115.098 264.265C114.715 263.759 114.204 263.506 113.566 263.506C112.942 263.506 112.438 263.754 112.056 264.251C111.673 264.748 111.481 265.459 111.481 266.384ZM121.496 269.104C121.947 269.104 122.341 268.968 122.679 268.694C123.016 268.421 123.203 268.079 123.239 267.669H124.436C124.413 268.093 124.267 268.496 123.998 268.879C123.729 269.262 123.369 269.567 122.918 269.795C122.471 270.023 121.997 270.137 121.496 270.137C120.489 270.137 119.687 269.802 119.09 269.132C118.497 268.457 118.201 267.537 118.201 266.37V266.158C118.201 265.438 118.333 264.798 118.598 264.237C118.862 263.677 119.24 263.242 119.732 262.932C120.229 262.622 120.815 262.467 121.489 262.467C122.319 262.467 123.007 262.715 123.554 263.212C124.105 263.709 124.399 264.354 124.436 265.146H123.239C123.203 264.668 123.021 264.276 122.692 263.971C122.369 263.661 121.968 263.506 121.489 263.506C120.847 263.506 120.348 263.738 119.992 264.203C119.641 264.663 119.466 265.331 119.466 266.206V266.445C119.466 267.298 119.641 267.954 119.992 268.414C120.343 268.874 120.844 269.104 121.496 269.104ZM130.424 269.269C129.932 269.847 129.209 270.137 128.257 270.137C127.468 270.137 126.867 269.909 126.452 269.453C126.042 268.993 125.835 268.314 125.83 267.416V262.604H127.095V267.382C127.095 268.503 127.55 269.063 128.462 269.063C129.428 269.063 130.071 268.703 130.39 267.983V262.604H131.654V270H130.451L130.424 269.269ZM137.889 268.038C137.889 267.696 137.759 267.432 137.499 267.245C137.244 267.054 136.795 266.89 136.152 266.753C135.514 266.616 135.006 266.452 134.628 266.261C134.254 266.069 133.976 265.841 133.794 265.577C133.616 265.313 133.527 264.998 133.527 264.634C133.527 264.028 133.783 263.515 134.293 263.096C134.808 262.676 135.464 262.467 136.262 262.467C137.1 262.467 137.779 262.683 138.299 263.116C138.823 263.549 139.085 264.103 139.085 264.777H137.813C137.813 264.431 137.665 264.132 137.369 263.882C137.077 263.631 136.708 263.506 136.262 263.506C135.801 263.506 135.441 263.606 135.182 263.807C134.922 264.007 134.792 264.269 134.792 264.593C134.792 264.898 134.913 265.128 135.154 265.283C135.396 265.438 135.831 265.586 136.46 265.728C137.093 265.869 137.606 266.037 137.998 266.233C138.39 266.429 138.679 266.666 138.866 266.944C139.058 267.218 139.153 267.553 139.153 267.949C139.153 268.61 138.889 269.141 138.36 269.542C137.832 269.938 137.146 270.137 136.303 270.137C135.71 270.137 135.186 270.032 134.73 269.822C134.275 269.613 133.917 269.321 133.657 268.947C133.402 268.569 133.274 268.161 133.274 267.724H134.539C134.562 268.147 134.73 268.485 135.045 268.735C135.364 268.981 135.783 269.104 136.303 269.104C136.781 269.104 137.164 269.009 137.451 268.817C137.743 268.621 137.889 268.362 137.889 268.038Z" fill="black"/>
<defs>
<filter id="filter0_d_0_1" x="44" y="177" width="908" height="78" filterUnits="userSpaceOnUse" color-interpolation-filters="sRGB">
<feFlood flood-opacity="0" result="BackgroundImageFix"/>
<feColorMatrix in="SourceAlpha" type="matrix" values="0 0 0 0 0 0 0 0 0 0 0 0 0 0 0 0 0 0 127 0" result="hardAlpha"/>
<feOffset dy="4"/>
<feGaussianBlur stdDeviation="2"/>
<feComposite in2="hardAlpha" operator="out"/>
<feColorMatrix type="matrix" values="0 0 0 0 0 0 0 0 0 0 0 0 0 0 0 0 0 0 0.25 0"/>
<feBlend mode="normal" in2="BackgroundImageFix" result="effect1_dropShadow_0_1"/>
<feBlend mode="normal" in="SourceGraphic" in2="effect1_dropShadow_0_1" result="shape"/>
</filter>
<filter id="filter1_d_0_1" x="40" y="172" width="916" height="86" filterUnits="userSpaceOnUse" color-interpolation-filters="sRGB">
<feFlood flood-opacity="0" result="BackgroundImageFix"/>
<feColorMatrix in="SourceAlpha" type="matrix" values="0 0 0 0 0 0 0 0 0 0 0 0 0 0 0 0 0 0 127 0" result="hardAlpha"/>
<feOffset dy="3"/>
<feGaussianBlur stdDeviation="4"/>
<feColorMatrix type="matrix" values="0 0 0 0 0.239216 0 0 0 0 0.305882 0 0 0 0 0.380392 0 0 0 0.2 0"/>
<feBlend mode="normal" in2="BackgroundImageFix" result="effect1_dropShadow_0_1"/>
<feBlend mode="normal" in="SourceGraphic" in2="effect1_dropShadow_0_1" result="shape"/>
</filter>
<filter id="filter2_d_0_1" x="40" y="64" width="916" height="86" filterUnits="userSpaceOnUse" color-interpolation-filters="sRGB">
<feFlood flood-opacity="0" result="BackgroundImageFix"/>
<feColorMatrix in="SourceAlpha" type="matrix" values="0 0 0 0 0 0 0 0 0 0 0 0 0 0 0 0 0 0 127 0" result="hardAlpha"/>
<feOffset dy="1"/>
<feGaussianBlur stdDeviation="4"/>
<feColorMatrix type="matrix" values="0 0 0 0 0.239216 0 0 0 0 0.305882 0 0 0 0 0.380392 0 0 0 0.1 0"/>
<feBlend mode="normal" in2="BackgroundImageFix" result="effect1_dropShadow_0_1"/>
<feBlend mode="normal" in="SourceGraphic" in2="effect1_dropShadow_0_1" result="shape"/>
</filter>
<filter id="filter3_d_0_1" x="44" y="283" width="908" height="78" filterUnits="userSpaceOnUse" color-interpolation-filters="sRGB">
<feFlood flood-opacity="0" result="BackgroundImageFix"/>
<feColorMatrix in="SourceAlpha" type="matrix" values="0 0 0 0 0 0 0 0 0 0 0 0 0 0 0 0 0 0 127 0" result="hardAlpha"/>
<feOffset dy="4"/>
<feGaussianBlur stdDeviation="2"/>
<feComposite in2="hardAlpha" operator="out"/>
<feColorMatrix type="matrix" values="0 0 0 0 0 0 0 0 0 0 0 0 0 0 0 0 0 0 0.25 0"/>
<feBlend mode="normal" in2="BackgroundImageFix" result="effect1_dropShadow_0_1"/>
<feBlend mode="normal" in="SourceGraphic" in2="effect1_dropShadow_0_1" result="shape"/>
</filter>
<filter id="filter4_d_0_1" x="106" y="308" width="166" height="28" filterUnits="userSpaceOnUse" color-interpolation-filters="sRGB">
<feFlood flood-opacity="0" result="BackgroundImageFix"/>
<feColorMatrix in="SourceAlpha" type="matrix" values="0 0 0 0 0 0 0 0 0 0 0 0 0 0 0 0 0 0 127 0" result="hardAlpha"/>
<feOffset dy="4"/>
<feGaussianBlur stdDeviation="2"/>
<feComposite in2="hardAlpha" operator="out"/>
<feColorMatrix type="matrix" values="0 0 0 0 0 0 0 0 0 0 0 0 0 0 0 0 0 0 0.25 0"/>
<feBlend mode="normal" in2="BackgroundImageFix" result="effect1_dropShadow_0_1"/>
<feBlend mode="normal" in="SourceGraphic" in2="effect1_dropShadow_0_1" result="shape"/>
</filter>
<filter id="filter5_d_0_1" x="40" y="396" width="443" height="58" filterUnits="userSpaceOnUse" color-interpolation-filters="sRGB">
<feFlood flood-opacity="0" result="BackgroundImageFix"/>
<feColorMatrix in="SourceAlpha" type="matrix" values="0 0 0 0 0 0 0 0 0 0 0 0 0 0 0 0 0 0 127 0" result="hardAlpha"/>
<feOffset dy="1"/>
<feGaussianBlur stdDeviation="4"/>
<feColorMatrix type="matrix" values="0 0 0 0 0.239216 0 0 0 0 0.305882 0 0 0 0 0.380392 0 0 0 0.1 0"/>
<feBlend mode="normal" in2="BackgroundImageFix" result="effect1_dropShadow_0_1"/>
<feBlend mode="normal" in="SourceGraphic" in2="effect1_dropShadow_0_1" result="shape"/>
</filter>
<filter id="filter6_d_0_1" x="77" y="415" width="166" height="27" filterUnits="userSpaceOnUse" color-interpolation-filters="sRGB">
<feFlood flood-opacity="0" result="BackgroundImageFix"/>
<feColorMatrix in="SourceAlpha" type="matrix" values="0 0 0 0 0 0 0 0 0 0 0 0 0 0 0 0 0 0 127 0" result="hardAlpha"/>
<feOffset dy="4"/>
<feGaussianBlur stdDeviation="2"/>
<feColorMatrix type="matrix" values="0 0 0 0 0 0 0 0 0 0 0 0 0 0 0 0 0 0 0.25 0"/>
<feBlend mode="normal" in2="BackgroundImageFix" result="effect1_dropShadow_0_1"/>
<feBlend mode="normal" in="SourceGraphic" in2="effect1_dropShadow_0_1" result="shape"/>
</filter>
<filter id="filter7_d_0_1" x="40" y="476" width="443" height="58" filterUnits="userSpaceOnUse" color-interpolation-filters="sRGB">
<feFlood flood-opacity="0" result="BackgroundImageFix"/>
<feColorMatrix in="SourceAlpha" type="matrix" values="0 0 0 0 0 0 0 0 0 0 0 0 0 0 0 0 0 0 127 0" result="hardAlpha"/>
<feOffset dy="3"/>
<feGaussianBlur stdDeviation="4"/>
<feColorMatrix type="matrix" values="0 0 0 0 0.239216 0 0 0 0 0.305882 0 0 0 0 0.380392 0 0 0 0.2 0"/>
<feBlend mode="normal" in2="BackgroundImageFix" result="effect1_dropShadow_0_1"/>
<feBlend mode="normal" in="SourceGraphic" in2="effect1_dropShadow_0_1" result="shape"/>
</filter>
<linearGradient id="paint0_linear_0_1" x1="498" y1="283" x2="498" y2="353" gradientUnits="userSpaceOnUse">
<stop stop-color="white"/>
<stop offset="1" stop-color="#F6F6F7"/>
</linearGradient>
<linearGradient id="paint1_linear_0_1" x1="261.5" y1="559" x2="261.5" y2="601" gradientUnits="userSpaceOnUse">
<stop stop-color="white"/>
<stop offset="1" stop-color="#F6F6F7"/>
</linearGradient>
</defs>
</svg>
