<svg width="158" height="20" viewBox="0 0 158 20" fill="none" xmlns="http://www.w3.org/2000/svg">
<path d="M5.168 16H4.016V5.728H0.224V4.672H8.96V5.728H5.168V16ZM8.98275 10.848C8.98275 10.5173 8.97208 10.1813 8.95075 9.84C8.94008 9.49867 8.92942 9.056 8.91875 8.512H9.95875V9.904H9.99075C10.0654 9.70133 10.1721 9.50933 10.3108 9.328C10.4494 9.136 10.6148 8.96533 10.8068 8.816C11.0094 8.66667 11.2388 8.54933 11.4948 8.464C11.7614 8.368 12.0601 8.32 12.3908 8.32C12.6894 8.32 12.9508 8.352 13.1748 8.416L12.9668 9.456C12.8281 9.40267 12.6254 9.376 12.3588 9.376C11.9534 9.376 11.6068 9.456 11.3188 9.616C11.0308 9.76533 10.7908 9.96267 10.5988 10.208C10.4068 10.4427 10.2628 10.6987 10.1668 10.976C10.0814 11.2533 10.0388 11.52 10.0388 11.776V16H8.98275V10.848ZM16.9673 14.704L19.2553 8.512H20.5353L16.7913 17.952C16.5673 18.528 16.2793 18.9867 15.9273 19.328C15.5859 19.6693 15.0899 19.84 14.4393 19.84C14.2793 19.84 14.1139 19.8347 13.9433 19.824C13.7833 19.8133 13.6233 19.7813 13.4633 19.728L13.5753 18.704C13.7993 18.8213 14.0659 18.88 14.3753 18.88C14.7486 18.88 15.0419 18.7627 15.2553 18.528C15.4686 18.2933 15.6553 17.9627 15.8153 17.536L16.3593 16.096L13.2873 8.512H14.6153L16.9673 14.704ZM30.9151 4.672H31.9871L30.9151 8.432H29.6191L30.9151 4.672ZM28.0191 4.672H29.0911L28.0191 8.432H26.7231L28.0191 4.672ZM36.188 14.944H41.468V16H35.036V4.672H36.188V14.944ZM49.068 12.256C49.068 11.84 48.9987 11.4507 48.86 11.088C48.732 10.7253 48.5453 10.4107 48.3 10.144C48.0547 9.87733 47.756 9.66933 47.404 9.52C47.0627 9.36 46.6733 9.28 46.236 9.28C45.7987 9.28 45.404 9.36 45.052 9.52C44.7107 9.66933 44.4173 9.87733 44.172 10.144C43.9373 10.4107 43.7507 10.7253 43.612 11.088C43.484 11.4507 43.42 11.84 43.42 12.256C43.42 12.672 43.484 13.0613 43.612 13.424C43.7507 13.7867 43.9373 14.1013 44.172 14.368C44.4173 14.6347 44.7107 14.848 45.052 15.008C45.404 15.1573 45.7987 15.232 46.236 15.232C46.6733 15.232 47.0627 15.1573 47.404 15.008C47.756 14.848 48.0547 14.6347 48.3 14.368C48.5453 14.1013 48.732 13.7867 48.86 13.424C48.9987 13.0613 49.068 12.672 49.068 12.256ZM50.22 12.256C50.22 12.8213 50.1187 13.344 49.916 13.824C49.724 14.304 49.452 14.72 49.1 15.072C48.748 15.424 48.3267 15.7013 47.836 15.904C47.356 16.096 46.8227 16.192 46.236 16.192C45.66 16.192 45.1267 16.096 44.636 15.904C44.156 15.7013 43.74 15.424 43.388 15.072C43.036 14.72 42.7587 14.304 42.556 13.824C42.364 13.344 42.268 12.8213 42.268 12.256C42.268 11.6907 42.364 11.168 42.556 10.688C42.7587 10.208 43.036 9.792 43.388 9.44C43.74 9.088 44.156 8.816 44.636 8.624C45.1267 8.42133 45.66 8.32 46.236 8.32C46.8227 8.32 47.356 8.42133 47.836 8.624C48.3267 8.816 48.748 9.088 49.1 9.44C49.452 9.792 49.724 10.208 49.916 10.688C50.1187 11.168 50.22 11.6907 50.22 12.256ZM56.1044 10.288C55.9444 9.97867 55.731 9.73333 55.4644 9.552C55.1977 9.37067 54.8724 9.28 54.4884 9.28C54.307 9.28 54.1204 9.30133 53.9284 9.344C53.747 9.38667 53.5817 9.456 53.4324 9.552C53.283 9.63733 53.1604 9.74933 53.0644 9.888C52.979 10.0267 52.9364 10.1973 52.9364 10.4C52.9364 10.752 53.059 11.008 53.3044 11.168C53.5497 11.328 53.9177 11.4667 54.4084 11.584L55.4804 11.84C56.003 11.9573 56.435 12.1973 56.7764 12.56C57.1284 12.912 57.3044 13.3547 57.3044 13.888C57.3044 14.2933 57.219 14.6453 57.0484 14.944C56.8884 15.232 56.6697 15.472 56.3924 15.664C56.1257 15.8453 55.8164 15.9787 55.4644 16.064C55.1124 16.1493 54.755 16.192 54.3924 16.192C53.8164 16.192 53.2777 16.0853 52.7764 15.872C52.2857 15.648 51.8644 15.2693 51.5124 14.736L52.4244 14.112C52.6377 14.4533 52.9044 14.7253 53.2244 14.928C53.555 15.1307 53.9444 15.232 54.3924 15.232C54.6057 15.232 54.819 15.2107 55.0324 15.168C55.2457 15.1147 55.4324 15.04 55.5924 14.944C55.763 14.8373 55.8964 14.704 55.9924 14.544C56.099 14.384 56.1524 14.1973 56.1524 13.984C56.1524 13.6107 56.0137 13.344 55.7364 13.184C55.459 13.0133 55.123 12.88 54.7284 12.784L53.7044 12.544C53.5764 12.512 53.4004 12.4587 53.1764 12.384C52.963 12.3093 52.7497 12.1973 52.5364 12.048C52.3337 11.8987 52.1577 11.7067 52.0084 11.472C51.859 11.2267 51.7844 10.928 51.7844 10.576C51.7844 10.192 51.859 9.856 52.0084 9.568C52.1684 9.28 52.3764 9.04533 52.6324 8.864C52.899 8.68267 53.1977 8.54933 53.5284 8.464C53.859 8.368 54.2004 8.32 54.5524 8.32C55.075 8.32 55.5604 8.42133 56.0084 8.624C56.4564 8.82667 56.803 9.17333 57.0484 9.664L56.1044 10.288ZM65.274 11.968H70.186L67.738 6.016L65.274 11.968ZM63.594 16H62.25L67.178 4.672H68.298L73.226 16H71.882L70.634 13.024H64.842L63.594 16ZM75.3788 8.512C75.4001 8.71467 75.4108 8.91733 75.4108 9.12C75.4214 9.312 75.4268 9.50933 75.4268 9.712H75.4588C75.5761 9.50933 75.7254 9.32267 75.9068 9.152C76.0881 8.98133 76.2908 8.83733 76.5148 8.72C76.7388 8.592 76.9734 8.496 77.2188 8.432C77.4748 8.35733 77.7254 8.32 77.9708 8.32C78.9308 8.32 79.6401 8.576 80.0988 9.088C80.5574 9.58933 80.7868 10.3093 80.7868 11.248V16H79.7308V11.856C79.7308 11.024 79.5868 10.3893 79.2988 9.952C79.0108 9.504 78.4774 9.28 77.6988 9.28C77.6454 9.28 77.4961 9.30133 77.2508 9.344C77.0054 9.38667 76.7441 9.504 76.4668 9.696C76.2001 9.888 75.9601 10.176 75.7468 10.56C75.5334 10.944 75.4268 11.4773 75.4268 12.16V16H74.3708V10.16C74.3708 9.95733 74.3601 9.70133 74.3388 9.392C74.3281 9.08267 74.3121 8.78933 74.2908 8.512H75.3788ZM84.0294 12.16C84.0294 12.5547 84.0987 12.928 84.2374 13.28C84.3867 13.6213 84.584 13.9253 84.8294 14.192C85.0854 14.448 85.3787 14.656 85.7094 14.816C86.0507 14.9653 86.4187 15.04 86.8134 15.04C87.1974 15.04 87.56 14.9707 87.9014 14.832C88.2534 14.6933 88.5627 14.5013 88.8294 14.256C89.096 14 89.2987 13.696 89.4374 13.344C89.5867 12.992 89.656 12.5973 89.6454 12.16C89.6454 11.7653 89.5814 11.3973 89.4534 11.056C89.3254 10.704 89.1387 10.4 88.8934 10.144C88.648 9.87733 88.3494 9.66933 87.9974 9.52C87.6454 9.36 87.2507 9.28 86.8134 9.28C86.4187 9.28 86.0507 9.36 85.7094 9.52C85.3787 9.66933 85.0854 9.87733 84.8294 10.144C84.584 10.4 84.3867 10.704 84.2374 11.056C84.0987 11.3973 84.0294 11.7653 84.0294 12.16ZM83.8374 17.504C84.1467 17.92 84.5467 18.2507 85.0374 18.496C85.5387 18.752 86.0934 18.88 86.7014 18.88C87.2347 18.88 87.688 18.8 88.0614 18.64C88.4347 18.4907 88.7334 18.2827 88.9574 18.016C89.192 17.7493 89.3574 17.4347 89.4534 17.072C89.56 16.72 89.6134 16.3413 89.6134 15.936V14.592H89.5814C89.24 15.104 88.824 15.4667 88.3334 15.68C87.8427 15.8933 87.3254 16 86.7814 16C86.2374 16 85.7254 15.904 85.2454 15.712C84.776 15.52 84.3654 15.2587 84.0134 14.928C83.6614 14.5867 83.384 14.1813 83.1814 13.712C82.9787 13.2427 82.8774 12.736 82.8774 12.192C82.8774 11.648 82.9734 11.1413 83.1654 10.672C83.3574 10.2027 83.6187 9.792 83.9494 9.44C84.2907 9.088 84.6907 8.816 85.1494 8.624C85.6187 8.42133 86.1307 8.32 86.6854 8.32C86.9094 8.32 87.144 8.34133 87.3894 8.384C87.6454 8.42667 87.896 8.50133 88.1414 8.608C88.3974 8.71467 88.648 8.864 88.8934 9.056C89.1387 9.23733 89.368 9.472 89.5814 9.76H89.6134V8.512H90.6694V15.936C90.6694 16.3413 90.616 16.7733 90.5094 17.232C90.4134 17.6907 90.216 18.112 89.9174 18.496C89.6294 18.88 89.224 19.2 88.7014 19.456C88.1787 19.712 87.496 19.84 86.6534 19.84C85.9067 19.84 85.24 19.7173 84.6534 19.472C84.0667 19.2267 83.5334 18.848 83.0534 18.336L83.8374 17.504ZM98.8666 11.68C98.8666 10.9653 98.6533 10.3893 98.2266 9.952C97.8 9.504 97.2026 9.28 96.4346 9.28C96.0933 9.28 95.7626 9.34933 95.4426 9.488C95.1226 9.616 94.84 9.792 94.5946 10.016C94.36 10.24 94.168 10.496 94.0186 10.784C93.88 11.072 93.8106 11.3707 93.8106 11.68H98.8666ZM93.7786 12.544C93.8106 12.9173 93.9013 13.2693 94.0506 13.6C94.2 13.9307 94.3973 14.2187 94.6426 14.464C94.888 14.6987 95.1706 14.8853 95.4906 15.024C95.8106 15.1627 96.1573 15.232 96.5306 15.232C97.096 15.232 97.5813 15.104 97.9866 14.848C98.4026 14.5813 98.7173 14.2773 98.9306 13.936L99.7466 14.608C99.2986 15.1733 98.8026 15.5787 98.2586 15.824C97.7253 16.0693 97.1493 16.192 96.5306 16.192C95.976 16.192 95.4586 16.096 94.9786 15.904C94.5093 15.7013 94.104 15.424 93.7626 15.072C93.4213 14.72 93.1493 14.304 92.9466 13.824C92.7546 13.344 92.6586 12.8213 92.6586 12.256C92.6586 11.6907 92.7546 11.168 92.9466 10.688C93.1386 10.208 93.4053 9.792 93.7466 9.44C94.088 9.088 94.488 8.816 94.9466 8.624C95.4053 8.42133 95.9013 8.32 96.4346 8.32C97 8.32 97.5066 8.42133 97.9546 8.624C98.4026 8.82667 98.776 9.09867 99.0746 9.44C99.384 9.77067 99.6186 10.1653 99.7786 10.624C99.9386 11.072 100.019 11.552 100.019 12.064V12.544H93.7786ZM103.229 16H102.173V3.904H103.229V16ZM111.601 11.68C111.601 10.9653 111.388 10.3893 110.961 9.952C110.534 9.504 109.937 9.28 109.169 9.28C108.828 9.28 108.497 9.34933 108.177 9.488C107.857 9.616 107.574 9.792 107.329 10.016C107.094 10.24 106.902 10.496 106.753 10.784C106.614 11.072 106.545 11.3707 106.545 11.68H111.601ZM106.513 12.544C106.545 12.9173 106.636 13.2693 106.785 13.6C106.934 13.9307 107.132 14.2187 107.377 14.464C107.622 14.6987 107.905 14.8853 108.225 15.024C108.545 15.1627 108.892 15.232 109.265 15.232C109.83 15.232 110.316 15.104 110.721 14.848C111.137 14.5813 111.452 14.2773 111.665 13.936L112.481 14.608C112.033 15.1733 111.537 15.5787 110.993 15.824C110.46 16.0693 109.884 16.192 109.265 16.192C108.71 16.192 108.193 16.096 107.713 15.904C107.244 15.7013 106.838 15.424 106.497 15.072C106.156 14.72 105.884 14.304 105.681 13.824C105.489 13.344 105.393 12.8213 105.393 12.256C105.393 11.6907 105.489 11.168 105.681 10.688C105.873 10.208 106.14 9.792 106.481 9.44C106.822 9.088 107.222 8.816 107.681 8.624C108.14 8.42133 108.636 8.32 109.169 8.32C109.734 8.32 110.241 8.42133 110.689 8.624C111.137 8.82667 111.51 9.09867 111.809 9.44C112.118 9.77067 112.353 10.1653 112.513 10.624C112.673 11.072 112.753 11.552 112.753 12.064V12.544H106.513ZM118.636 10.288C118.476 9.97867 118.262 9.73333 117.996 9.552C117.729 9.37067 117.404 9.28 117.02 9.28C116.838 9.28 116.652 9.30133 116.46 9.344C116.278 9.38667 116.113 9.456 115.964 9.552C115.814 9.63733 115.692 9.74933 115.596 9.888C115.51 10.0267 115.468 10.1973 115.468 10.4C115.468 10.752 115.59 11.008 115.836 11.168C116.081 11.328 116.449 11.4667 116.94 11.584L118.012 11.84C118.534 11.9573 118.966 12.1973 119.308 12.56C119.66 12.912 119.836 13.3547 119.836 13.888C119.836 14.2933 119.75 14.6453 119.58 14.944C119.42 15.232 119.201 15.472 118.924 15.664C118.657 15.8453 118.348 15.9787 117.996 16.064C117.644 16.1493 117.286 16.192 116.924 16.192C116.348 16.192 115.809 16.0853 115.308 15.872C114.817 15.648 114.396 15.2693 114.044 14.736L114.956 14.112C115.169 14.4533 115.436 14.7253 115.756 14.928C116.086 15.1307 116.476 15.232 116.924 15.232C117.137 15.232 117.35 15.2107 117.564 15.168C117.777 15.1147 117.964 15.04 118.124 14.944C118.294 14.8373 118.428 14.704 118.524 14.544C118.63 14.384 118.684 14.1973 118.684 13.984C118.684 13.6107 118.545 13.344 118.268 13.184C117.99 13.0133 117.654 12.88 117.26 12.784L116.236 12.544C116.108 12.512 115.932 12.4587 115.708 12.384C115.494 12.3093 115.281 12.1973 115.068 12.048C114.865 11.8987 114.689 11.7067 114.54 11.472C114.39 11.2267 114.316 10.928 114.316 10.576C114.316 10.192 114.39 9.856 114.54 9.568C114.7 9.28 114.908 9.04533 115.164 8.864C115.43 8.68267 115.729 8.54933 116.06 8.464C116.39 8.368 116.732 8.32 117.084 8.32C117.606 8.32 118.092 8.42133 118.54 8.624C118.988 8.82667 119.334 9.17333 119.58 9.664L118.636 10.288ZM122.92 8.432H121.848L122.92 4.672H124.216L122.92 8.432ZM125.816 8.432H124.744L125.816 4.672H127.112L125.816 8.432Z" fill="#3D4E61"/>
</svg>
