<svg width="161" height="26" viewBox="0 0 161 26" fill="none" xmlns="http://www.w3.org/2000/svg">
<g filter="url(#filter0_d_119374_4)">
<path d="M5.352 13.076H9.972V14H4.344V4.088H5.352V13.076ZM16.622 10.724C16.622 10.36 16.5613 10.0193 16.44 9.702C16.328 9.38467 16.1647 9.10933 15.95 8.876C15.7353 8.64267 15.474 8.46067 15.166 8.33C14.8673 8.19 14.5267 8.12 14.144 8.12C13.7613 8.12 13.416 8.19 13.108 8.33C12.8093 8.46067 12.5527 8.64267 12.338 8.876C12.1327 9.10933 11.9693 9.38467 11.848 9.702C11.736 10.0193 11.68 10.36 11.68 10.724C11.68 11.088 11.736 11.4287 11.848 11.746C11.9693 12.0633 12.1327 12.3387 12.338 12.572C12.5527 12.8053 12.8093 12.992 13.108 13.132C13.416 13.2627 13.7613 13.328 14.144 13.328C14.5267 13.328 14.8673 13.2627 15.166 13.132C15.474 12.992 15.7353 12.8053 15.95 12.572C16.1647 12.3387 16.328 12.0633 16.44 11.746C16.5613 11.4287 16.622 11.088 16.622 10.724ZM17.63 10.724C17.63 11.2187 17.5413 11.676 17.364 12.096C17.196 12.516 16.958 12.88 16.65 13.188C16.342 13.496 15.9733 13.7387 15.544 13.916C15.124 14.084 14.6573 14.168 14.144 14.168C13.64 14.168 13.1733 14.084 12.744 13.916C12.324 13.7387 11.96 13.496 11.652 13.188C11.344 12.88 11.1013 12.516 10.924 12.096C10.756 11.676 10.672 11.2187 10.672 10.724C10.672 10.2293 10.756 9.772 10.924 9.352C11.1013 8.932 11.344 8.568 11.652 8.26C11.96 7.952 12.324 7.714 12.744 7.546C13.1733 7.36867 13.64 7.28 14.144 7.28C14.6573 7.28 15.124 7.36867 15.544 7.546C15.9733 7.714 16.342 7.952 16.65 8.26C16.958 8.568 17.196 8.932 17.364 9.352C17.5413 9.772 17.63 10.2293 17.63 10.724ZM22.7788 9.002C22.6388 8.73133 22.4522 8.51667 22.2188 8.358C21.9855 8.19933 21.7008 8.12 21.3648 8.12C21.2062 8.12 21.0428 8.13867 20.8748 8.176C20.7162 8.21333 20.5715 8.274 20.4408 8.358C20.3102 8.43267 20.2028 8.53067 20.1188 8.652C20.0442 8.77333 20.0068 8.92267 20.0068 9.1C20.0068 9.408 20.1142 9.632 20.3288 9.772C20.5435 9.912 20.8655 10.0333 21.2948 10.136L22.2328 10.36C22.6902 10.4627 23.0682 10.6727 23.3668 10.99C23.6748 11.298 23.8288 11.6853 23.8288 12.152C23.8288 12.5067 23.7542 12.8147 23.6048 13.076C23.4648 13.328 23.2735 13.538 23.0308 13.706C22.7975 13.8647 22.5268 13.9813 22.2188 14.056C21.9108 14.1307 21.5982 14.168 21.2808 14.168C20.7768 14.168 20.3055 14.0747 19.8668 13.888C19.4375 13.692 19.0688 13.3607 18.7608 12.894L19.5588 12.348C19.7455 12.6467 19.9788 12.8847 20.2588 13.062C20.5482 13.2393 20.8888 13.328 21.2808 13.328C21.4675 13.328 21.6542 13.3093 21.8408 13.272C22.0275 13.2253 22.1908 13.16 22.3308 13.076C22.4802 12.9827 22.5968 12.866 22.6808 12.726C22.7742 12.586 22.8208 12.4227 22.8208 12.236C22.8208 11.9093 22.6995 11.676 22.4568 11.536C22.2142 11.3867 21.9202 11.27 21.5748 11.186L20.6788 10.976C20.5668 10.948 20.4128 10.9013 20.2168 10.836C20.0302 10.7707 19.8435 10.6727 19.6568 10.542C19.4795 10.4113 19.3255 10.2433 19.1948 10.038C19.0642 9.82333 18.9988 9.562 18.9988 9.254C18.9988 8.918 19.0642 8.624 19.1948 8.372C19.3348 8.12 19.5168 7.91467 19.7408 7.756C19.9742 7.59733 20.2355 7.48067 20.5248 7.406C20.8142 7.322 21.1128 7.28 21.4208 7.28C21.8782 7.28 22.3028 7.36867 22.6948 7.546C23.0868 7.72333 23.3902 8.02667 23.6048 8.456L22.7788 9.002ZM30.8023 10.472H35.1003L32.9583 5.264L30.8023 10.472ZM29.3323 14H28.1562L32.4683 4.088H33.4483L37.7603 14H36.5843L35.4923 11.396H30.4243L29.3323 14ZM39.6439 7.448C39.6626 7.62533 39.6719 7.80267 39.6719 7.98C39.6812 8.148 39.6859 8.32067 39.6859 8.498H39.7139C39.8166 8.32067 39.9472 8.15733 40.1059 8.008C40.2646 7.85867 40.4419 7.73267 40.6379 7.63C40.8339 7.518 41.0392 7.434 41.2539 7.378C41.4779 7.31267 41.6972 7.28 41.9119 7.28C42.7519 7.28 43.3726 7.504 43.7739 7.952C44.1752 8.39067 44.3759 9.02067 44.3759 9.842V14H43.4519V10.374C43.4519 9.646 43.3259 9.09067 43.0739 8.708C42.8219 8.316 42.3552 8.12 41.6739 8.12C41.6272 8.12 41.4966 8.13867 41.2819 8.176C41.0672 8.21333 40.8386 8.316 40.5959 8.484C40.3626 8.652 40.1526 8.904 39.9659 9.24C39.7792 9.576 39.6859 10.0427 39.6859 10.64V14H38.7619V8.89C38.7619 8.71267 38.7526 8.48867 38.7339 8.218C38.7246 7.94733 38.7106 7.69067 38.6919 7.448H39.6439ZM47.2132 10.64C47.2132 10.9853 47.2739 11.312 47.3952 11.62C47.5259 11.9187 47.6985 12.1847 47.9132 12.418C48.1372 12.642 48.3939 12.824 48.6832 12.964C48.9819 13.0947 49.3039 13.16 49.6492 13.16C49.9852 13.16 50.3025 13.0993 50.6012 12.978C50.9092 12.8567 51.1799 12.6887 51.4132 12.474C51.6465 12.25 51.8239 11.984 51.9452 11.676C52.0759 11.368 52.1365 11.0227 52.1272 10.64C52.1272 10.2947 52.0712 9.97267 51.9592 9.674C51.8472 9.366 51.6839 9.1 51.4692 8.876C51.2545 8.64267 50.9932 8.46067 50.6852 8.33C50.3772 8.19 50.0319 8.12 49.6492 8.12C49.3039 8.12 48.9819 8.19 48.6832 8.33C48.3939 8.46067 48.1372 8.64267 47.9132 8.876C47.6985 9.1 47.5259 9.366 47.3952 9.674C47.2739 9.97267 47.2132 10.2947 47.2132 10.64ZM47.0452 15.316C47.3159 15.68 47.6659 15.9693 48.0952 16.184C48.5339 16.408 49.0192 16.52 49.5512 16.52C50.0179 16.52 50.4145 16.45 50.7412 16.31C51.0679 16.1793 51.3292 15.9973 51.5252 15.764C51.7305 15.5307 51.8752 15.2553 51.9592 14.938C52.0525 14.63 52.0992 14.2987 52.0992 13.944V12.768H52.0712C51.7725 13.216 51.4085 13.5333 50.9792 13.72C50.5499 13.9067 50.0972 14 49.6212 14C49.1452 14 48.6972 13.916 48.2772 13.748C47.8665 13.58 47.5072 13.3513 47.1992 13.062C46.8912 12.7633 46.6485 12.4087 46.4712 11.998C46.2939 11.5873 46.2052 11.144 46.2052 10.668C46.2052 10.192 46.2892 9.74867 46.4572 9.338C46.6252 8.92733 46.8539 8.568 47.1432 8.26C47.4419 7.952 47.7919 7.714 48.1932 7.546C48.6039 7.36867 49.0519 7.28 49.5372 7.28C49.7332 7.28 49.9385 7.29867 50.1532 7.336C50.3772 7.37333 50.5965 7.43867 50.8112 7.532C51.0352 7.62533 51.2545 7.756 51.4692 7.924C51.6839 8.08267 51.8845 8.288 52.0712 8.54H52.0992V7.448H53.0232V13.944C53.0232 14.2987 52.9765 14.6767 52.8832 15.078C52.7992 15.4793 52.6265 15.848 52.3652 16.184C52.1132 16.52 51.7585 16.8 51.3012 17.024C50.8439 17.248 50.2465 17.36 49.5092 17.36C48.8559 17.36 48.2725 17.2527 47.7592 17.038C47.2459 16.8233 46.7792 16.492 46.3592 16.044L47.0452 15.316ZM60.1958 10.22C60.1958 9.59467 60.0091 9.09067 59.6358 8.708C59.2625 8.316 58.7398 8.12 58.0678 8.12C57.7691 8.12 57.4798 8.18067 57.1998 8.302C56.9198 8.414 56.6725 8.568 56.4578 8.764C56.2525 8.96 56.0845 9.184 55.9538 9.436C55.8325 9.688 55.7718 9.94933 55.7718 10.22H60.1958ZM55.7438 10.976C55.7718 11.3027 55.8511 11.6107 55.9818 11.9C56.1125 12.1893 56.2851 12.4413 56.4998 12.656C56.7145 12.8613 56.9618 13.0247 57.2418 13.146C57.5218 13.2673 57.8251 13.328 58.1518 13.328C58.6465 13.328 59.0711 13.216 59.4258 12.992C59.7898 12.7587 60.0651 12.4927 60.2518 12.194L60.9658 12.782C60.5738 13.2767 60.1398 13.6313 59.6638 13.846C59.1971 14.0607 58.6931 14.168 58.1518 14.168C57.6665 14.168 57.2138 14.084 56.7938 13.916C56.3831 13.7387 56.0285 13.496 55.7298 13.188C55.4311 12.88 55.1931 12.516 55.0158 12.096C54.8478 11.676 54.7638 11.2187 54.7638 10.724C54.7638 10.2293 54.8478 9.772 55.0158 9.352C55.1838 8.932 55.4171 8.568 55.7158 8.26C56.0145 7.952 56.3645 7.714 56.7658 7.546C57.1671 7.36867 57.6011 7.28 58.0678 7.28C58.5625 7.28 59.0058 7.36867 59.3978 7.546C59.7898 7.72333 60.1165 7.96133 60.3778 8.26C60.6485 8.54933 60.8538 8.89467 60.9938 9.296C61.1338 9.688 61.2038 10.108 61.2038 10.556V10.976H55.7438ZM64.0131 14H63.0891V3.416H64.0131V14ZM71.3384 10.22C71.3384 9.59467 71.1517 9.09067 70.7784 8.708C70.405 8.316 69.8824 8.12 69.2104 8.12C68.9117 8.12 68.6224 8.18067 68.3424 8.302C68.0624 8.414 67.815 8.568 67.6004 8.764C67.395 8.96 67.227 9.184 67.0964 9.436C66.975 9.688 66.9144 9.94933 66.9144 10.22H71.3384ZM66.8864 10.976C66.9144 11.3027 66.9937 11.6107 67.1244 11.9C67.255 12.1893 67.4277 12.4413 67.6424 12.656C67.857 12.8613 68.1044 13.0247 68.3844 13.146C68.6644 13.2673 68.9677 13.328 69.2944 13.328C69.789 13.328 70.2137 13.216 70.5684 12.992C70.9324 12.7587 71.2077 12.4927 71.3944 12.194L72.1084 12.782C71.7164 13.2767 71.2824 13.6313 70.8064 13.846C70.3397 14.0607 69.8357 14.168 69.2944 14.168C68.809 14.168 68.3564 14.084 67.9364 13.916C67.5257 13.7387 67.171 13.496 66.8724 13.188C66.5737 12.88 66.3357 12.516 66.1584 12.096C65.9904 11.676 65.9064 11.2187 65.9064 10.724C65.9064 10.2293 65.9904 9.772 66.1584 9.352C66.3264 8.932 66.5597 8.568 66.8584 8.26C67.157 7.952 67.507 7.714 67.9084 7.546C68.3097 7.36867 68.7437 7.28 69.2104 7.28C69.705 7.28 70.1484 7.36867 70.5404 7.546C70.9324 7.72333 71.259 7.96133 71.5204 8.26C71.791 8.54933 71.9964 8.89467 72.1364 9.296C72.2764 9.688 72.3464 10.108 72.3464 10.556V10.976H66.8864ZM77.4937 9.002C77.3537 8.73133 77.167 8.51667 76.9337 8.358C76.7003 8.19933 76.4157 8.12 76.0797 8.12C75.921 8.12 75.7577 8.13867 75.5897 8.176C75.431 8.21333 75.2863 8.274 75.1557 8.358C75.025 8.43267 74.9177 8.53067 74.8337 8.652C74.759 8.77333 74.7217 8.92267 74.7217 9.1C74.7217 9.408 74.829 9.632 75.0437 9.772C75.2583 9.912 75.5803 10.0333 76.0097 10.136L76.9477 10.36C77.405 10.4627 77.783 10.6727 78.0817 10.99C78.3897 11.298 78.5437 11.6853 78.5437 12.152C78.5437 12.5067 78.469 12.8147 78.3197 13.076C78.1797 13.328 77.9883 13.538 77.7457 13.706C77.5123 13.8647 77.2417 13.9813 76.9337 14.056C76.6257 14.1307 76.313 14.168 75.9957 14.168C75.4917 14.168 75.0203 14.0747 74.5817 13.888C74.1523 13.692 73.7837 13.3607 73.4757 12.894L74.2737 12.348C74.4603 12.6467 74.6937 12.8847 74.9737 13.062C75.263 13.2393 75.6037 13.328 75.9957 13.328C76.1823 13.328 76.369 13.3093 76.5557 13.272C76.7423 13.2253 76.9057 13.16 77.0457 13.076C77.195 12.9827 77.3117 12.866 77.3957 12.726C77.489 12.586 77.5357 12.4227 77.5357 12.236C77.5357 11.9093 77.4143 11.676 77.1717 11.536C76.929 11.3867 76.635 11.27 76.2897 11.186L75.3937 10.976C75.2817 10.948 75.1277 10.9013 74.9317 10.836C74.745 10.7707 74.5583 10.6727 74.3717 10.542C74.1943 10.4113 74.0403 10.2433 73.9097 10.038C73.779 9.82333 73.7137 9.562 73.7137 9.254C73.7137 8.918 73.779 8.624 73.9097 8.372C74.0497 8.12 74.2317 7.91467 74.4557 7.756C74.689 7.59733 74.9503 7.48067 75.2397 7.406C75.529 7.322 75.8277 7.28 76.1357 7.28C76.593 7.28 77.0177 7.36867 77.4097 7.546C77.8017 7.72333 78.105 8.02667 78.3197 8.456L77.4937 9.002Z" fill="#3D4E61"/>
</g>
<defs>
<filter id="filter0_d_119374_4" x="-1" y="0" width="166" height="27" filterUnits="userSpaceOnUse" color-interpolation-filters="sRGB">
<feFlood flood-opacity="0" result="BackgroundImageFix"/>
<feColorMatrix in="SourceAlpha" type="matrix" values="0 0 0 0 0 0 0 0 0 0 0 0 0 0 0 0 0 0 127 0" result="hardAlpha"/>
<feOffset dy="4"/>
<feGaussianBlur stdDeviation="2"/>
<feColorMatrix type="matrix" values="0 0 0 0 0 0 0 0 0 0 0 0 0 0 0 0 0 0 0.25 0"/>
<feBlend mode="normal" in2="BackgroundImageFix" result="effect1_dropShadow_119374_4"/>
<feBlend mode="normal" in="SourceGraphic" in2="effect1_dropShadow_119374_4" result="shape"/>
</filter>
</defs>
</svg>
