<svg width="19" height="19" viewBox="0 0 19 19" fill="none" xmlns="http://www.w3.org/2000/svg">
<path d="M8.10352 0.5C12.2941 0.50021 15.7061 3.90826 15.7061 8.10156C15.706 10.0066 15.0027 11.7493 13.8398 13.0859L13.5342 13.4375L13.8643 13.7676L18.4824 18.3848C18.4926 18.3951 18.5 18.4111 18.5 18.4316C18.4999 18.4519 18.4925 18.4673 18.4824 18.4775L18.4756 18.4844C18.4677 18.4925 18.4539 18.4999 18.4355 18.5C18.432 18.5 18.4239 18.4992 18.4141 18.4951C18.4046 18.4911 18.3959 18.4848 18.3887 18.4775L13.7705 13.8604L13.4404 13.5312L13.0889 13.8369C11.752 14.9995 10.009 15.703 8.10352 15.7031C3.91301 15.7031 0.500126 12.2908 0.5 8.10156C0.5 3.91201 3.90889 0.5 8.10352 0.5ZM8.09863 0.637695C3.98415 0.637847 0.633789 3.98308 0.633789 8.10156C0.633915 12.2195 3.98384 15.5692 8.09863 15.5693C12.2182 15.5693 15.5643 12.215 15.5645 8.10156C15.5645 3.9876 12.2178 0.637695 8.09863 0.637695Z" fill="#687C94" stroke="#687C94"/>
</svg>
