<svg xmlns="http://www.w3.org/2000/svg" width="19" height="19" fill="none"><path fill="#687C94" stroke="#687C94" d="m13.84 13.086-.306.351.33.33 4.618 4.618q.017.016.018.046-.002.031-.018.047l-.006.007a.06.06 0 0 1-.062.01.1.1 0 0 1-.025-.017L13.77 13.86l-.33-.33-.351.306a7.57 7.57 0 0 1-4.986 1.866C3.913 15.703.5 12.29.5 8.1S3.909.5 8.103.5c4.19 0 7.603 3.408 7.603 7.601a7.57 7.57 0 0 1-1.866 4.985ZM8.1.637C3.984.637.634 3.983.634 8.101s3.35 7.468 7.465 7.468c4.12 0 7.465-3.354 7.465-7.468S12.218.637 8.1.637Z"/></svg>